<?xml version="1.0" encoding="UTF-8"?>
<svg version="1.1" xmlns="http://www.w3.org/2000/svg" width="368" height="136">
<path d="M0 0 C0.99 0 1.98 0 3 0 C4.9324254 18.33078917 1.21027453 30.77046519 -8.01196289 46.63183594 C-9.12368231 49.29644636 -9.03195815 50.35481749 -8 53 C-7.28714844 52.96519531 -6.57429688 52.93039063 -5.83984375 52.89453125 C0.33185789 52.72009554 4.57199689 53.00905951 10 56 C10.78375 56.37125 11.5675 56.7425 12.375 57.125 C15.11730674 60.28920009 14.76265383 63.90577858 15 68 C11.37 68 7.74 68 4 68 C3.67 66.35 3.34 64.7 3 63 C1.02 62.67 -0.96 62.34 -3 62 C-4.87543354 65.86763446 -4.87543354 65.86763446 -4 70 C-2.35 70 -0.7 70 1 70 C1 70.66 1 71.32 1 72 C2.03060547 72.47179687 2.03060547 72.47179687 3.08203125 72.953125 C3.98308594 73.38109375 4.88414063 73.8090625 5.8125 74.25 C6.70582031 74.66765625 7.59914063 75.0853125 8.51953125 75.515625 C11.18296171 77.1094889 12.47002561 78.31382346 14 81 C14.75198692 85.12118322 14.41282572 88.90722604 12.9375 92.8125 C9.6598006 96.51312835 5.68825286 98.43724905 1 100 C1.66 100 2.32 100 3 100 C3 104.29 3 108.58 3 113 C0.79283537 114.27289905 -1.41567485 115.5433605 -3.625 116.8125 C-4.24246094 117.16892578 -4.85992187 117.52535156 -5.49609375 117.89257812 C-8.43285836 119.57735361 -11.34440356 121.16586792 -14.3984375 122.63671875 C-17.11118095 123.73514103 -17.11118095 123.73514103 -18 126 C-19.00160156 126.16822266 -19.00160156 126.16822266 -20.0234375 126.33984375 C-24.31582893 127.29183083 -27.80502024 129.43413244 -31.625 131.5625 C-33.13484732 132.40286266 -34.64775471 133.23775734 -36.1640625 134.06640625 C-36.82873535 134.43709229 -37.4934082 134.80777832 -38.17822266 135.18969727 C-40 136 -40 136 -43 136 C-42.23005625 128.13846906 -40.87069632 120.45566329 -39.37304688 112.703125 C-38.15825094 106.06402047 -37.7700083 99.74477453 -38 93 C-37.34 93 -36.68 93 -36 93 C-35.44587959 89.32178693 -35.20421511 87.16703534 -37.34179688 84.03222656 C-39.23523557 81.96712432 -41.20386024 80.03876472 -43.25 78.125 C-43.93191406 77.44953125 -44.61382812 76.7740625 -45.31640625 76.078125 C-48.74677745 72.50299797 -48.74677745 72.50299797 -53.11132812 70.47314453 C-56.30718583 69.67252764 -57.28697699 66.67739151 -59 64 C-60.82167442 61.98267405 -62.77752851 60.11892968 -64.75 58.25 C-66.55530637 56.53656673 -68.2858508 54.80872295 -70 53 C-70 52.34 -70 51.68 -70 51 C-59.44218128 48.77375069 -48.8160129 47.22647574 -38.125 45.8125 C-37.44435486 45.72214478 -36.76370972 45.63178955 -36.06243896 45.53869629 C-24.42836823 44 -24.42836823 44 -22 44 C-21.505 43.01 -21.505 43.01 -21 42 C-20.54882812 41.43023437 -20.09765625 40.86046875 -19.6328125 40.2734375 C-17.65776435 37.52349007 -16.2994294 34.69575485 -14.875 31.625 C-14.35679688 30.52414063 -13.83859375 29.42328125 -13.3046875 28.2890625 C-12.05302653 25.13367766 -11.52957089 22.33399411 -11 19 C-9.8542711 16.50608408 -8.45203657 14.34199447 -7 12 C-6.34 12 -5.68 12 -5 12 C-4.896875 11.071875 -4.79375 10.14375 -4.6875 9.1875 C-3.96755671 5.8495811 -3.45546562 5.14853242 -1 3 C-0.67 2.01 -0.34 1.02 0 0 Z M-8 16 C-7 18 -7 18 -7 18 Z M-9 18 C-8 20 -8 20 -8 20 Z M-28.5625 56.875 C-29.80708984 57.04902344 -31.05167969 57.22304688 -32.33398438 57.40234375 C-34.1196582 57.66337891 -34.1196582 57.66337891 -35.94140625 57.9296875 C-37.03138916 58.08679199 -38.12137207 58.24389648 -39.24438477 58.40576172 C-42.19650249 58.86606244 -42.19650249 58.86606244 -45 61 C-43.76315749 62.11596436 -42.5262103 63.23181286 -41.28881836 64.34716797 C-40.20645861 65.33761213 -39.13583321 66.34101 -38.07641602 67.35595703 C-35.36884554 69.93767762 -32.78274596 72.21686966 -29.578125 74.16015625 C-25.9527957 76.71682505 -23.2313933 78.68033569 -22 83 C-22.10449794 91.85983814 -24.32316053 100.61783191 -26.47998047 109.171875 C-27.24686651 112.06369409 -27.24686651 112.06369409 -26 115 C-23.19504688 113.62977458 -20.40904394 112.22466377 -17.625 110.8125 C-16.8309375 110.42513672 -16.036875 110.03777344 -15.21875 109.63867188 C-10.55891347 107.38600817 -10.55891347 107.38600817 -7.7109375 103.26171875 C-7.47632813 102.51535156 -7.24171875 101.76898438 -7 101 C-4.875 100.1875 -4.875 100.1875 -3 100 C-3.90363281 99.75765625 -4.80726562 99.5153125 -5.73828125 99.265625 C-6.91777344 98.93046875 -8.09726563 98.5953125 -9.3125 98.25 C-11.07013672 97.76273438 -11.07013672 97.76273438 -12.86328125 97.265625 C-16.19781751 95.92018322 -17.32197887 95.12298376 -19 92 C-19.6875 88.25 -19.6875 88.25 -20 85 C-16.7 85 -13.4 85 -10 85 C-9.855625 85.804375 -9.71125 86.60875 -9.5625 87.4375 C-9.25864751 89.92103706 -9.25864751 89.92103706 -8 91 C-5.93227266 91.19941868 -5.93227266 91.19941868 -3.5625 91.1875 C-2.75941406 91.20167969 -1.95632812 91.21585938 -1.12890625 91.23046875 C1.21630633 91.20162356 1.21630633 91.20162356 3 89 C3.50014953 86.54258463 3.50014953 86.54258463 3 84 C-0.76711293 80.54532534 -5.40346485 79.21172667 -10.125 77.4765625 C-13.45655613 75.76551872 -14.99228181 74.1421027 -17 71 C-17.93974132 67.09304395 -17.37009994 63.7930713 -15.6875 60.1875 C-14.22444433 58.29094635 -12.77442053 56.6054281 -11 55 C-16.93607843 55 -22.6968407 56.015719 -28.5625 56.875 Z M-8 65 C-7 68 -7 68 -7 68 Z " fill="#0A0A09" transform="translate(81,0)"/>
<path d="M0 0 C2.74529218 0.70647415 4.49895969 1.56323216 7 3 C7.78375 3.37125 8.5675 3.7425 9.375 4.125 C12.11730674 7.28920009 11.76265383 10.90577858 12 15 C8.37 15 4.74 15 1 15 C0.67 13.35 0.34 11.7 0 10 C-2.97 9.505 -2.97 9.505 -6 9 C-7.87543354 12.86763446 -7.87543354 12.86763446 -7 17 C-5.35 17 -3.7 17 -2 17 C-2 17.66 -2 18.32 -2 19 C-1.31292969 19.31453125 -0.62585938 19.6290625 0.08203125 19.953125 C0.98308594 20.38109375 1.88414063 20.8090625 2.8125 21.25 C3.70582031 21.66765625 4.59914063 22.0853125 5.51953125 22.515625 C8.18296171 24.1094889 9.47002561 25.31382346 11 28 C11.75198692 32.12118322 11.41282572 35.90722604 9.9375 39.8125 C7.35638343 42.72666387 4.48193848 44.39014978 1 46 C-0.03125 46.495 -1.0625 46.99 -2.125 47.5 C-8.11939666 48.27347054 -13.58076994 46.59981364 -19 44 C-22.13045001 40.82328718 -22.95356942 39.70806635 -23.25 35.1875 C-23.1675 34.135625 -23.085 33.08375 -23 32 C-19.7 32 -16.4 32 -13 32 C-12.34 33.65 -11.68 35.3 -11 37 C-9.52093108 37.02689216 -8.04172517 37.04634621 -6.5625 37.0625 C-5.32693359 37.07990234 -5.32693359 37.07990234 -4.06640625 37.09765625 C-2.00836062 37.23267348 -2.00836062 37.23267348 -1 36 C-0.95936168 34.33382885 -0.957279 32.66611905 -1 31 C-1.556875 30.76925781 -2.11375 30.53851563 -2.6875 30.30078125 C-18.45777351 23.56112044 -18.45777351 23.56112044 -21 18 C-21.51438038 12.59900596 -21.4397009 9.38858391 -18 5 C-17.071875 3.6078125 -17.071875 3.6078125 -16.125 2.1875 C-11.1085179 -1.32403747 -5.92718218 -0.6796892 0 0 Z M-11 12 C-10 15 -10 15 -10 15 Z " fill="#FDBF00" transform="translate(84,53)"/>
<path d="M0 0 C3.3125 1.9375 3.3125 1.9375 6 4 C6.99 4.33 7.98 4.66 9 5 C11.53466037 10.06932075 10.12536783 17.65450281 9 23 C8.34 23 7.68 23 7 23 C6.67 26.96 6.34 30.92 6 35 C2.7 35 -0.6 35 -4 35 C-4.33 34.01 -4.66 33.02 -5 32 C-5.53625 32.474375 -6.0725 32.94875 -6.625 33.4375 C-9.5234292 35.34436132 -11.54525996 35.7884853 -15 36 C-18.4076389 35.049031 -20.9218917 33.90935162 -23 31 C-24.14942114 27.30543206 -24.19634689 25.51670233 -22.8125 21.875 C-21.10078262 19.15986209 -19.38168879 17.13530719 -17 15 C-17.66 14.34 -18.32 13.68 -19 13 C-13.39 13.33 -7.78 13.66 -2 14 C-2 12.35 -2 10.7 -2 9 C-2.99 9.33 -3.98 9.66 -5 10 C-6.32 10 -7.64 10 -9 10 C-9.33 10.66 -9.66 11.32 -10 12 C-13.3 12 -16.6 12 -20 12 C-20.66 10.68 -21.32 9.36 -22 8 C-21.67 7.01 -21.34 6.02 -21 5 C-20.01 5.33 -19.02 5.66 -18 6 C-16.30327614 4.70513179 -14.6396721 3.36639342 -13 2 C-8.87140064 -0.23167533 -4.6187502 -0.7697917 0 0 Z M8 7 C8 9.97 8 12.94 8 16 C8.33 16 8.66 16 9 16 C9 13.03 9 10.06 9 7 C8.67 7 8.34 7 8 7 Z M-20 8 C-19 10 -19 10 -19 10 Z M-16 14 C-12 15 -12 15 -12 15 Z M-13 23 C-13 24.32 -13 25.64 -13 27 C-9.62599422 27.41725678 -9.62599422 27.41725678 -6 27 C-3.74770047 24.32644639 -3.74770047 24.32644639 -3 21 C-8.58664846 20.39578469 -8.58664846 20.39578469 -13 23 Z " fill="#FEBF00" transform="translate(141,64)"/>
<path d="M0 0 C21.83333333 0 21.83333333 0 27.375 5.25 C29.4730126 8.80048286 29.42887225 10.92571364 29 15 C28.5875 16.010625 28.175 17.02125 27.75 18.0625 C27.5025 19.031875 27.255 20.00125 27 21 C27.61875 21.886875 28.2375 22.77375 28.875 23.6875 C31.88333704 28.37696656 31.96116964 32.56441998 31 38 C27.97172715 42.23958199 25.93877048 43.02449181 21 45 C14.07 45 7.14 45 0 45 C0 30.15 0 15.3 0 0 Z M5 4 C5 9.28 5 14.56 5 20 C5.33 20 5.66 20 6 20 C6 14.72 6 9.44 6 4 C5.67 4 5.34 4 5 4 Z M7 5 C7 9.62 7 14.24 7 19 C13.53757465 19.4460995 13.53757465 19.4460995 20 19 C22.5154666 16.80041296 22.5154666 16.80041296 24 14 C23.93750902 10.87545079 23.63107775 8.92284315 21.859375 6.33203125 C17.87005965 3.47413937 11.62146426 4.86272878 7 5 Z M7 24 C7 24.33 7 24.66 7 25 C11.62 25 16.24 25 21 25 C21 24.67 21 24.34 21 24 C16.38 24 11.76 24 7 24 Z M5 24 C5 29.28 5 34.56 5 40 C7.5575 40.04125 10.115 40.0825 12.75 40.125 C13.54889648 40.14320801 14.34779297 40.16141602 15.17089844 40.18017578 C20.40862956 40.22594919 20.40862956 40.22594919 25 38 C26.55774936 34.88450128 26.56480622 31.3955612 26 28 C25.08740694 26.05920655 25.08740694 26.05920655 23 25 C20.21938281 24.99708225 17.68272775 25.12923835 14.9375 25.4375 C12.27324396 25.72103121 9.68373564 25.90363082 7 26 C6.34 25.34 5.68 24.68 5 24 Z " fill="#000000" transform="translate(177,54)"/>
<path d="M0 0 C0.99128906 -0.00257812 1.98257813 -0.00515625 3.00390625 -0.0078125 C5.4375 0.125 5.4375 0.125 6.4375 1.125 C6.47813832 2.79117115 6.480221 4.45888095 6.4375 6.125 C7.0975 6.455 7.7575 6.785 8.4375 7.125 C9.43194068 10.46993684 9.54098268 12.81455197 8.4375 16.125 C6.4575 16.125 4.4775 16.125 2.4375 16.125 C2.37691406 17.08921875 2.31632812 18.0534375 2.25390625 19.046875 C2.17011719 20.31015625 2.08632812 21.5734375 2 22.875 C1.91878906 24.12796875 1.83757812 25.3809375 1.75390625 26.671875 C1.51234478 29.30817553 1.19466066 31.60537294 0.4375 34.125 C2.0875 34.125 3.7375 34.125 5.4375 34.125 C5.4375 36.435 5.4375 38.745 5.4375 41.125 C2.37503253 42.90909802 0.21670727 43.35380021 -3.3125 43.25 C-4.51132813 43.22292969 -4.51132813 43.22292969 -5.734375 43.1953125 C-6.33765625 43.17210937 -6.9409375 43.14890625 -7.5625 43.125 C-11.35656468 36.80155887 -10.59745072 30.53596229 -9.125 23.6875 C-8.97740234 22.95595703 -8.82980469 22.22441406 -8.67773438 21.47070312 C-8.31626742 19.68668879 -7.9408325 17.90551398 -7.5625 16.125 C-9.2125 15.795 -10.8625 15.465 -12.5625 15.125 C-11.6875 8.375 -11.6875 8.375 -10.5625 6.125 C-9.5725 6.125 -8.5825 6.125 -7.5625 6.125 C-7.5625 4.475 -7.5625 2.825 -7.5625 1.125 C-4.93920316 -0.18664842 -2.92551375 -0.00762846 0 0 Z M4.4375 1.125 C4.4375 2.775 4.4375 4.425 4.4375 6.125 C4.7675 6.125 5.0975 6.125 5.4375 6.125 C5.4375 4.475 5.4375 2.825 5.4375 1.125 C5.1075 1.125 4.7775 1.125 4.4375 1.125 Z " fill="#FEBF00" transform="translate(109.5625,56.875)"/>
<path d="M0 0 C3.0482673 2.46455654 4.83325083 4.74987624 7 8 C7.23046875 10.41015625 7.23046875 10.41015625 7.1875 13.0625 C7.18105469 13.94035156 7.17460937 14.81820312 7.16796875 15.72265625 C7 18 7 18 6 20 C-0.27 20 -6.54 20 -13 20 C-13 21.98 -13 23.96 -13 26 C-10.77432796 28.15611978 -9.19950451 29.00725507 -6.0625 28.98828125 C-4.01308385 28.75151158 -2.0211595 28.41156675 0 28 C0.99 27.814375 1.98 27.62875 3 27.4375 C3.66 27.293125 4.32 27.14875 5 27 C5.33 28.32 5.66 29.64 6 31 C1.63173269 34.24097252 -2.6287503 35.28646665 -8 35 C-12.67773962 33.68232687 -15.41339324 31.73701875 -18.4375 27.9375 C-21.28126462 22.59122251 -21.63526915 17.95564825 -21 12 C-19.32924825 6.66993872 -16.75432322 3.04764309 -12 0 C-7.8224461 -1.39251797 -4.24798402 -1.10492379 0 0 Z M-14 8 C-14.33 9.65 -14.66 11.3 -15 13 C-9.39 13 -3.78 13 2 13 C1.6090747 7.33884156 1.6090747 7.33884156 -0.6875 5.125 C-6.13922632 2.47280882 -9.9422088 3.71033501 -14 8 Z M-15 20 C-14 24 -14 24 -14 24 Z " fill="#000000" transform="translate(247,65)"/>
<path d="M0 0 C1.31223496 3.93670488 0.24296256 6.12488144 -1 10 C-2.98 10 -4.96 10 -7 10 C-7.33 10.99 -7.66 11.98 -8 13 C-8.66 13 -9.32 13 -10 13 C-10.12846313 13.83978394 -10.12846313 13.83978394 -10.25952148 14.6965332 C-10.64948061 17.23561208 -11.04344516 19.77405368 -11.4375 22.3125 C-11.57220703 23.19357422 -11.70691406 24.07464844 -11.84570312 24.98242188 C-11.97783203 25.82998047 -12.10996094 26.67753906 -12.24609375 27.55078125 C-12.36654053 28.33106689 -12.4869873 29.11135254 -12.61108398 29.9152832 C-13 32 -13 32 -14 35 C-17.3 35 -20.6 35 -24 35 C-22.78385337 23.56822166 -21.12118336 12.2988367 -19 1 C-18.15695313 1.01160156 -17.31390625 1.02320312 -16.4453125 1.03515625 C-15.34960938 1.04417969 -14.25390625 1.05320312 -13.125 1.0625 C-12.03445312 1.07410156 -10.94390625 1.08570312 -9.8203125 1.09765625 C-6.32735734 0.97670905 -3.62568994 -0.09541289 0 0 Z " fill="#FEC000" transform="translate(175,64)"/>
<path d="M0 0 C3.6578218 2.03993908 5.66946174 3.50419262 8 7 C9.35797088 12.52642578 9.14809409 18.15829651 9.125 23.8125 C9.13080078 25.26172852 9.13080078 25.26172852 9.13671875 26.74023438 C9.13542969 27.65740234 9.13414062 28.57457031 9.1328125 29.51953125 C9.13168457 30.35589111 9.13055664 31.19225098 9.12939453 32.05395508 C9 34 9 34 8 35 C6.33382885 35.04063832 4.66611905 35.042721 3 35 C2.98541748 34.22809326 2.97083496 33.45618652 2.95581055 32.66088867 C2.88141967 29.16924907 2.7847291 25.6785751 2.6875 22.1875 C2.66494141 20.97255859 2.64238281 19.75761719 2.61914062 18.50585938 C2.5659668 16.76079102 2.5659668 16.76079102 2.51171875 14.98046875 C2.48553467 13.90692139 2.45935059 12.83337402 2.43237305 11.72729492 C2.21516772 8.98530231 2.21516772 8.98530231 0.60498047 7.13745117 C-1.60539519 5.57095586 -2.90800426 5.78389511 -5.5625 6.125 C-6.34753906 6.21007812 -7.13257813 6.29515625 -7.94140625 6.3828125 C-10.37692555 6.87454468 -10.37692555 6.87454468 -12 10 C-12.36798693 12.71075544 -12.36798693 12.71075544 -12.4140625 15.76171875 C-12.45273437 16.87998047 -12.49140625 17.99824219 -12.53125 19.15039062 C-12.5621875 20.31763672 -12.593125 21.48488281 -12.625 22.6875 C-12.66367187 23.86634766 -12.70234375 25.04519531 -12.7421875 26.25976562 C-12.83654391 29.17301977 -12.92213161 32.08626607 -13 35 C-14.65 35 -16.3 35 -18 35 C-18 23.78 -18 12.56 -18 1 C-16.35 1 -14.7 1 -13 1 C-12.67 1.66 -12.34 2.32 -12 3 C-11.13375 2.505 -10.2675 2.01 -9.375 1.5 C-5.75527463 -0.10876683 -3.89651898 -0.56824235 0 0 Z " fill="#000000" transform="translate(278,64)"/>
<path d="M0 0 C3.33794538 1.16102448 4.3364746 1.83747557 5.875 5 C5.875 6.98 5.875 8.96 5.875 11 C1.915 11 -2.045 11 -6.125 11 C-5.465 11.33 -4.805 11.66 -4.125 12 C-4.125 13.32 -4.125 14.64 -4.125 16 C-0.78247276 16.07427838 1.6785914 16.06546953 4.875 15 C5.205 15.99 5.535 16.98 5.875 18 C2.18673823 20.45884118 -0.84168541 20.57976177 -5.125 20 C-7.60226505 18.56579392 -9.10570602 17.01929398 -11.125 15 C-11.785 16.32 -12.445 17.64 -13.125 19 C-13.125 14.38 -13.125 9.76 -13.125 5 C-11.475 4.67 -9.825 4.34 -8.125 4 C-6.9184375 2.948125 -6.9184375 2.948125 -5.6875 1.875 C-3.125 0 -3.125 0 0 0 Z M-4.125 4 C-4.125 4.33 -4.125 4.66 -4.125 5 C-2.475 5 -0.825 5 0.875 5 C0.875 4.67 0.875 4.34 0.875 4 C-0.775 4 -2.425 4 -4.125 4 Z M-12.125 6 C-11.125 9 -11.125 9 -11.125 9 Z M-6.125 6 C-6.125 6.66 -6.125 7.32 -6.125 8 C-3.155 8 -0.185 8 2.875 8 C2.875 7.67 2.875 7.34 2.875 7 C-0.095 6.67 -3.065 6.34 -6.125 6 Z M-10.125 12 C-9.125 15 -9.125 15 -9.125 15 Z " fill="#000000" transform="translate(341.125,79)"/>
<path d="M0 0 C1.65 0 3.3 0 5 0 C5 11.22 5 22.44 5 34 C3.35 34 1.7 34 0 34 C0 22.78 0 11.56 0 0 Z " fill="#000000" transform="translate(215,65)"/>
<path d="M0 0 C0.94875 0.04125 1.8975 0.0825 2.875 0.125 C2.875 1.115 2.875 2.105 2.875 3.125 C1.225 3.125 -0.425 3.125 -2.125 3.125 C-2.125 4.775 -2.125 6.425 -2.125 8.125 C-0.805 8.125 0.515 8.125 1.875 8.125 C1.875 9.115 1.875 10.105 1.875 11.125 C0.555 11.125 -0.765 11.125 -2.125 11.125 C-2.125 16.405 -2.125 21.685 -2.125 27.125 C-3.445 27.125 -4.765 27.125 -6.125 27.125 C-6.125 21.845 -6.125 16.565 -6.125 11.125 C-7.115 10.795 -8.105 10.465 -9.125 10.125 C-9.125 9.465 -9.125 8.805 -9.125 8.125 C-8.135 8.125 -7.145 8.125 -6.125 8.125 C-6.00125 7.17625 -5.8775 6.2275 -5.75 5.25 C-4.9116727 1.05836349 -4.32891429 0.17315657 0 0 Z " fill="#000000" transform="translate(329.125,71.875)"/>
<path d="M0 0 C0.99 0 1.98 0 3 0 C3 8.91 3 17.82 3 27 C2.01 27 1.02 27 0 27 C0 18.09 0 9.18 0 0 Z " fill="#000000" transform="translate(307,72)"/>
<path d="M0 0 C0.99 0 1.98 0 3 0 C3 6.27 3 12.54 3 19 C2.01 19 1.02 19 0 19 C0 12.73 0 6.46 0 0 Z " fill="#000000" transform="translate(315,80)"/>
<path d="M0 0 C1.2065625 0.0309375 1.2065625 0.0309375 2.4375 0.0625 C2.4375 2.3725 2.4375 4.6825 2.4375 7.0625 C0.4575 7.0625 -1.5225 7.0625 -3.5625 7.0625 C-3.60504356 5.06295254 -3.60330783 3.06208364 -3.5625 1.0625 C-2.5625 0.0625 -2.5625 0.0625 0 0 Z " fill="#000000" transform="translate(297.5625,91.9375)"/>
<path d="M0 0 C1.65 0 3.3 0 5 0 C5 1.98 5 3.96 5 6 C3.0625 6.5625 3.0625 6.5625 1 7 C0 6 0 6 -0.0625 2.9375 C-0.041875 1.968125 -0.02125 0.99875 0 0 Z " fill="#000000" transform="translate(215,51)"/>
<path d="M0 0 C0.33 0 0.66 0 1 0 C1 10.56 1 21.12 1 32 C0.67 32 0.34 32 0 32 C0 21.44 0 10.88 0 0 Z " fill="#000000" transform="translate(258,66)"/>
<path d="M0 0 C0.33 0 0.66 0 1 0 C1 10.56 1 21.12 1 32 C0.67 32 0.34 32 0 32 C0 21.44 0 10.88 0 0 Z " fill="#000000" transform="translate(221,66)"/>
<path d="M0 0 C0.33 0 0.66 0 1 0 C1 10.56 1 21.12 1 32 C0.67 32 0.34 32 0 32 C0 21.44 0 10.88 0 0 Z " fill="#000000" transform="translate(213,66)"/>
<path d="M0 0 C0.33 0 0.66 0 1 0 C1 8.25 1 16.5 1 25 C0.67 25 0.34 25 0 25 C0 16.75 0 8.5 0 0 Z " fill="#000000" transform="translate(311,73)"/>
<path d="M0 0 C0.33 0 0.66 0 1 0 C1 8.25 1 16.5 1 25 C0.67 25 0.34 25 0 25 C0 16.75 0 8.5 0 0 Z " fill="#000000" transform="translate(305,73)"/>
<path d="M0 0 C0.33 0 0.66 0 1 0 C1 8.25 1 16.5 1 25 C0.67 25 0.34 25 0 25 C0 16.75 0 8.5 0 0 Z " fill="#000000" transform="translate(279,73)"/>
<path d="M0 0 C-2.45275141 1.2263757 -4.0505781 1.11415314 -6.7890625 1.09765625 C-7.73007813 1.09443359 -8.67109375 1.09121094 -9.640625 1.08789062 C-10.62546875 1.07951172 -11.6103125 1.07113281 -12.625 1.0625 C-13.61757812 1.05798828 -14.61015625 1.05347656 -15.6328125 1.04882812 C-18.0886016 1.03702145 -20.54427104 1.020554 -23 1 C-23 0.67 -23 0.34 -23 0 C-19.72966072 -0.19689005 -16.45872059 -0.38089008 -13.1875 -0.5625 C-12.25873047 -0.61857422 -11.32996094 -0.67464844 -10.37304688 -0.73242188 C-9.48037109 -0.78076172 -8.58769531 -0.82910156 -7.66796875 -0.87890625 C-6.84578857 -0.9260376 -6.0236084 -0.97316895 -5.17651367 -1.02172852 C-3 -1 -3 -1 0 0 Z " fill="#000000" transform="translate(201,100)"/>
<path d="M0 0 C0.33 0 0.66 0 1 0 C1 7.92 1 15.84 1 24 C0.67 24 0.34 24 0 24 C0 16.08 0 8.16 0 0 Z " fill="#000000" transform="translate(266,74)"/>
<path d="M0 0 C0.33 0 0.66 0 1 0 C1 7.92 1 15.84 1 24 C0.67 24 0.34 24 0 24 C0 16.08 0 8.16 0 0 Z " fill="#191919" transform="translate(85,0)"/>
<path d="M0 0 C5.94 0 11.88 0 18 0 C18 0.33 18 0.66 18 1 C12.06 1 6.12 1 0 1 C0 0.67 0 0.34 0 0 Z " fill="#000000" transform="translate(178,52)"/>
<path d="M0 0 C0.33 0 0.66 0 1 0 C1 5.61 1 11.22 1 17 C0.67 17 0.34 17 0 17 C0 11.39 0 5.78 0 0 Z " fill="#000000" transform="translate(313,81)"/>
<path d="M0 0 C0.33 0 0.66 0 1 0 C1 5.28 1 10.56 1 16 C0.67 16 0.34 16 0 16 C0 10.72 0 5.44 0 0 Z " fill="#000000" transform="translate(319,82)"/>
<path d="M0 0 C0.33 0 0.66 0 1 0 C1.33 3.63 1.66 7.26 2 11 C1.34 11 0.68 11 0 11 C0 7.37 0 3.74 0 0 Z " fill="#FEC000" transform="translate(148,87)"/>
<path d="M0 0 C4.29 0 8.58 0 13 0 C13 0.33 13 0.66 13 1 C8.71 1 4.42 1 0 1 C0 0.67 0 0.34 0 0 Z " fill="#000000" transform="translate(185,92)"/>
<path d="M0 0 C2.64 0.33 5.28 0.66 8 1 C8 1.33 8 1.66 8 2 C5.03 2 2.06 2 -1 2 C-0.67 1.34 -0.34 0.68 0 0 Z " fill="#F7BD05" transform="translate(62,82)"/>
<path d="M0 0 C1.4370809 -0.05422947 2.87475462 -0.09289723 4.3125 -0.125 C5.11300781 -0.14820313 5.91351563 -0.17140625 6.73828125 -0.1953125 C9 0 9 0 12 2 C8.04 1.67 4.08 1.34 0 1 C0 0.67 0 0.34 0 0 Z " fill="#FEBF00" transform="translate(76,51)"/>
<path d="M0 0 C0.33 0 0.66 0 1 0 C1 3.96 1 7.92 1 12 C0.67 12 0.34 12 0 12 C0 8.04 0 4.08 0 0 Z " fill="#000000" transform="translate(321,86)"/>
<path d="M0 0 C0.99 0 1.98 0 3 0 C3 1.32 3 2.64 3 4 C2.01 4 1.02 4 0 4 C0 2.68 0 1.36 0 0 Z " fill="#000000" transform="translate(315,72)"/>
<path d="M0 0 C0.33 0 0.66 0 1 0 C1 3.63 1 7.26 1 11 C0.67 11 0.34 11 0 11 C0 7.37 0 3.74 0 0 Z " fill="#161616" transform="translate(85,101)"/>
<path d="M0 0 C3.63 0 7.26 0 11 0 C11 0.33 11 0.66 11 1 C7.37 1 3.74 1 0 1 C0 0.67 0 0.34 0 0 Z " fill="#000000" transform="translate(235,76)"/>
<path d="M0 0 C0.33 0 0.66 0 1 0 C1 1.65 1 3.3 1 5 C1.66 5.33 2.32 5.66 3 6 C1.68 6.33 0.36 6.66 -1 7 C-0.67 4.69 -0.34 2.38 0 0 Z " fill="#070707" transform="translate(56,106)"/>
<path d="M0 0 C2.97 0 5.94 0 9 0 C9 0.33 9 0.66 9 1 C6.03 1 3.06 1 0 1 C0 0.67 0 0.34 0 0 Z " fill="#FEC001" transform="translate(152,100)"/>
<path d="M0 0 C2.97 0 5.94 0 9 0 C9 0.33 9 0.66 9 1 C6.03 1 3.06 1 0 1 C0 0.67 0 0.34 0 0 Z " fill="#FEC000" transform="translate(138,100)"/>
<path d="M0 0 C2.64 0 5.28 0 8 0 C7.34 0.66 6.68 1.32 6 2 C2.875 1.625 2.875 1.625 0 1 C0 0.67 0 0.34 0 0 Z " fill="#000000" transform="translate(338,91)"/>
<path d="M0 0 C0.33 0 0.66 0 1 0 C1 2.97 1 5.94 1 9 C0.67 9 0.34 9 0 9 C0 6.03 0 3.06 0 0 Z " fill="#000000" transform="translate(209,82)"/>
<path d="M0 0 C2.97 0 5.94 0 9 0 C9 0.33 9 0.66 9 1 C6.03 1 3.06 1 0 1 C0 0.67 0 0.34 0 0 Z " fill="#FEC001" transform="translate(105,55)"/>
<path d="M0 0 C2.64 0 5.28 0 8 0 C8 0.33 8 0.66 8 1 C5.36 1 2.72 1 0 1 C0 0.67 0 0.34 0 0 Z " fill="#000000" transform="translate(336,100)"/>
<path d="M0 0 C0.99 1.485 0.99 1.485 2 3 C1.67 3.99 1.34 4.98 1 6 C0.67 6 0.34 6 0 6 C0 4.02 0 2.04 0 0 Z " fill="#8B731A" transform="translate(59,89)"/>
<path d="M0 0 C1.98 0 3.96 0 6 0 C5.67 0.99 5.34 1.98 5 3 C5 2.34 5 1.68 5 1 C3.35 1 1.7 1 0 1 C0 0.67 0 0.34 0 0 Z " fill="#FEBF00" transform="translate(130,86)"/>
<path d="M0 0 C0.33 0 0.66 0 1 0 C1 2.64 1 5.28 1 8 C0.67 8 0.34 8 0 8 C0 5.36 0 2.72 0 0 Z " fill="#000000" transform="translate(201,82)"/>
<path d="M0 0 C2.64 0 5.28 0 8 0 C8 0.33 8 0.66 8 1 C5.36 1 2.72 1 0 1 C0 0.67 0 0.34 0 0 Z " fill="#000000" transform="translate(185,71)"/>
<path d="M0 0 C2.64 0 5.28 0 8 0 C8 0.33 8 0.66 8 1 C5.36 1 2.72 1 0 1 C0 0.67 0 0.34 0 0 Z " fill="#FEC000" transform="translate(87,69)"/>
<path d="M0 0 C2.64 0 5.28 0 8 0 C8 0.33 8 0.66 8 1 C5.36 1 2.72 1 0 1 C0 0.67 0 0.34 0 0 Z " fill="#FDBF00" transform="translate(157,63)"/>
<path d="M0 0 C0.33 0 0.66 0 1 0 C1 2.31 1 4.62 1 7 C0.67 7 0.34 7 0 7 C0 4.69 0 2.38 0 0 Z " fill="#FEC000" transform="translate(150,88)"/>
<path d="M0 0 C0.33 0 0.66 0 1 0 C1 2.31 1 4.62 1 7 C0.67 7 0.34 7 0 7 C0 4.69 0 2.38 0 0 Z " fill="#FEC000" transform="translate(153,69)"/>
<path d="M0 0 C2.31 0 4.62 0 7 0 C7 0.33 7 0.66 7 1 C4.69 1 2.38 1 0 1 C0 0.67 0 0.34 0 0 Z " fill="#000000" transform="translate(271,62)"/>
<path d="M0 0 C1.98 0 3.96 0 6 0 C5.34 0.66 4.68 1.32 4 2 C2.68 1.34 1.36 0.68 0 0 Z " fill="#3F380D" transform="translate(60,57)"/>
<path d="M0 0 C0.33 0 0.66 0 1 0 C1 1.98 1 3.96 1 6 C0.67 6 0.34 6 0 6 C0 4.02 0 2.04 0 0 Z " fill="#0B0B0B" transform="translate(39,115)"/>
<path d="M0 0 C0.33 0 0.66 0 1 0 C1 1.98 1 3.96 1 6 C0.67 6 0.34 6 0 6 C0 4.02 0 2.04 0 0 Z " fill="#161616" transform="translate(41,104)"/>
<path d="M0 0 C0.33 0 0.66 0 1 0 C1 1.98 1 3.96 1 6 C0.67 6 0.34 6 0 6 C0 4.02 0 2.04 0 0 Z " fill="#0B0B0B" transform="translate(57,100)"/>
<path d="M0 0 C1.98 0 3.96 0 6 0 C6 0.33 6 0.66 6 1 C4.02 1 2.04 1 0 1 C0 0.67 0 0.34 0 0 Z " fill="#000000" transform="translate(337,94)"/>
<path d="M0 0 C0.33 0 0.66 0 1 0 C1 1.98 1 3.96 1 6 C0.67 6 0.34 6 0 6 C0 4.02 0 2.04 0 0 Z " fill="#FEC000" transform="translate(164,83)"/>
<path d="M0 0 C0.33 0 0.66 0 1 0 C1 1.98 1 3.96 1 6 C0.67 6 0.34 6 0 6 C0 4.02 0 2.04 0 0 Z " fill="#FDC000" transform="translate(151,82)"/>
<path d="M0 0 C0.33 0 0.66 0 1 0 C1 1.98 1 3.96 1 6 C0.67 6 0.34 6 0 6 C0 4.02 0 2.04 0 0 Z " fill="#FEC000" transform="translate(165,77)"/>
<path d="M0 0 C0.33 0 0.66 0 1 0 C1 1.98 1 3.96 1 6 C0.67 6 0.34 6 0 6 C0 4.02 0 2.04 0 0 Z " fill="#FEBF00" transform="translate(152,76)"/>
<path d="M0 0 C1.98 0 3.96 0 6 0 C6 0.33 6 0.66 6 1 C4.02 1 2.04 1 0 1 C0 0.67 0 0.34 0 0 Z " fill="#000000" transform="translate(271,70)"/>
<path d="M0 0 C1.98 0 3.96 0 6 0 C6 0.33 6 0.66 6 1 C4.02 1 2.04 1 0 1 C0 0.67 0 0.34 0 0 Z " fill="#000000" transform="translate(238,70)"/>
<path d="M0 0 C0.33 0 0.66 0 1 0 C1 1.98 1 3.96 1 6 C0.67 6 0.34 6 0 6 C0 4.02 0 2.04 0 0 Z " fill="#FEC000" transform="translate(61,64)"/>
<path d="M0 0 C1.98 0 3.96 0 6 0 C6 0.33 6 0.66 6 1 C4.02 1 2.04 1 0 1 C0 0.67 0 0.34 0 0 Z " fill="#000000" transform="translate(238,62)"/>
<path d="M0 0 C0.33 0 0.66 0 1 0 C1 1.98 1 3.96 1 6 C0.67 6 0.34 6 0 6 C0 4.02 0 2.04 0 0 Z " fill="#000000" transform="translate(221,51)"/>
<path d="M0 0 C0.33 0 0.66 0 1 0 C1 1.98 1 3.96 1 6 C0.67 6 0.34 6 0 6 C0 4.02 0 2.04 0 0 Z " fill="#000000" transform="translate(213,51)"/>
<path d="M0 0 C0.33 0 0.66 0 1 0 C1 1.65 1 3.3 1 5 C0.67 5 0.34 5 0 5 C0 3.35 0 1.7 0 0 Z " fill="#070707" transform="translate(37,127)"/>
<path d="M0 0 C0.33 0 0.66 0 1 0 C1 1.65 1 3.3 1 5 C0.67 5 0.34 5 0 5 C0 3.35 0 1.7 0 0 Z " fill="#070707" transform="translate(38,121)"/>
<path d="M0 0 C0.33 0 0.66 0 1 0 C1 1.65 1 3.3 1 5 C0.67 5 0.34 5 0 5 C0 3.35 0 1.7 0 0 Z " fill="#050505" transform="translate(40,110)"/>
<path d="M0 0 C1.65 0 3.3 0 5 0 C5 0.33 5 0.66 5 1 C3.35 1 1.7 1 0 1 C0 0.67 0 0.34 0 0 Z " fill="#000000" transform="translate(239,101)"/>
<path d="M0 0 C1.65 0 3.3 0 5 0 C5 0.33 5 0.66 5 1 C3.35 1 1.7 1 0 1 C0 0.67 0 0.34 0 0 Z " fill="#FEC103" transform="translate(106,101)"/>
<path d="M0 0 C0.33 0 0.66 0 1 0 C1 1.65 1 3.3 1 5 C0.67 5 0.34 5 0 5 C0 3.35 0 1.7 0 0 Z " fill="#080808" transform="translate(42,99)"/>
<path d="M0 0 C0.33 0 0.66 0 1 0 C1 1.65 1 3.3 1 5 C0.67 5 0.34 5 0 5 C0 3.35 0 1.7 0 0 Z " fill="#040404" transform="translate(58,95)"/>
<path d="M0 0 C0.33 0 0.66 0 1 0 C1 1.65 1 3.3 1 5 C0.67 5 0.34 5 0 5 C0 3.35 0 1.7 0 0 Z " fill="#000000" transform="translate(301,93)"/>
<path d="M0 0 C0.33 0 0.66 0 1 0 C1 1.65 1 3.3 1 5 C0.67 5 0.34 5 0 5 C0 3.35 0 1.7 0 0 Z " fill="#000000" transform="translate(292,93)"/>
<path d="M0 0 C1.65 0 3.3 0 5 0 C5 0.33 5 0.66 5 1 C3.35 1 1.7 1 0 1 C0 0.67 0 0.34 0 0 Z " fill="#000000" transform="translate(239,93)"/>
<path d="M0 0 C0.66 1.32 1.32 2.64 2 4 C1.34 4 0.68 4 0 4 C0 2.68 0 1.36 0 0 Z " fill="#FEC000" transform="translate(116,92)"/>
<path d="M0 0 C0.33 0 0.66 0 1 0 C1 1.65 1 3.3 1 5 C0.67 5 0.34 5 0 5 C0 3.35 0 1.7 0 0 Z " fill="#FEC000" transform="translate(163,90)"/>
<path d="M0 0 C0.33 0 0.66 0 1 0 C1 1.65 1 3.3 1 5 C0.67 5 0.34 5 0 5 C0 3.35 0 1.7 0 0 Z " fill="#060606" transform="translate(44,88)"/>
<path d="M0 0 C0.33 0 0.66 0 1 0 C1 1.65 1 3.3 1 5 C0.67 5 0.34 5 0 5 C0 3.35 0 1.7 0 0 Z " fill="#000000" transform="translate(348,84)"/>
<path d="M0 0 C0.33 0 0.66 0 1 0 C1 1.65 1 3.3 1 5 C0.67 5 0.34 5 0 5 C0 3.35 0 1.7 0 0 Z " fill="#FEC000" transform="translate(99,76)"/>
<path d="M0 0 C1.65 0 3.3 0 5 0 C5 0.33 5 0.66 5 1 C3.35 1 1.7 1 0 1 C0 0.67 0 0.34 0 0 Z " fill="#0E0E0E" transform="translate(14,48)"/>
<path d="M0 0 C1.65 0 3.3 0 5 0 C5 0.33 5 0.66 5 1 C3.35 1 1.7 1 0 1 C0 0.67 0 0.34 0 0 Z " fill="#0C0C0C" transform="translate(21,47)"/>
<path d="M0 0 C1 4 1 4 1 4 Z " fill="#121212" transform="translate(36,132)"/>
<path d="M0 0 C4 1 4 1 4 1 Z " fill="#000000" transform="translate(295,100)"/>
<path d="M0 0 C4 1 4 1 4 1 Z " fill="#000000" transform="translate(282,100)"/>
<path d="M0 0 C4 1 4 1 4 1 Z " fill="#000000" transform="translate(244,100)"/>
<path d="M0 0 C4 1 4 1 4 1 Z " fill="#000000" transform="translate(215,100)"/>
<path d="M0 0 C4 1 4 1 4 1 Z " fill="#FEC000" transform="translate(122,100)"/>
<path d="M0 0 C4 1 4 1 4 1 Z " fill="#FEC103" transform="translate(70,100)"/>
<path d="M0 0 C1 4 1 4 1 4 Z " fill="#FEC000" transform="translate(72,85)"/>
<path d="M0 0 C4 1 4 1 4 1 Z " fill="#000000" transform="translate(327,70)"/>
<path d="M0 0 C1 4 1 4 1 4 Z " fill="#FEC000" transform="translate(154,65)"/>
<path d="M0 0 C1 4 1 4 1 4 Z " fill="#000000" transform="translate(199,64)"/>
<path d="M0 0 C4 1 4 1 4 1 Z " fill="#000000" transform="translate(215,63)"/>
<path d="M0 0 C4 1 4 1 4 1 Z " fill="#FEC000" transform="translate(135,62)"/>
<path d="M0 0 C4 1 4 1 4 1 Z " fill="#000000" transform="translate(215,49)"/>
<path d="M0 0 C3 1 3 1 3 1 Z " fill="#FEC000" transform="translate(126,101)"/>
<path d="M0 0 C3 1 3 1 3 1 Z " fill="#000000" transform="translate(261,100)"/>
<path d="M0 0 C3 1 3 1 3 1 Z " fill="#000000" transform="translate(236,100)"/>
<path d="M0 0 C3 1 3 1 3 1 Z " fill="#FEC000" transform="translate(129,100)"/>
<path d="M0 0 C3 1 3 1 3 1 Z " fill="#FEC000" transform="translate(111,100)"/>
<path d="M0 0 C3 1 3 1 3 1 Z " fill="#FFC710" transform="translate(67,99)"/>
<path d="M0 0 C3 1 3 1 3 1 Z " fill="#000000" transform="translate(244,92)"/>
<path d="M0 0 C3 1 3 1 3 1 Z " fill="#000000" transform="translate(236,92)"/>
<path d="M0 0 C0.33 0.66 0.66 1.32 1 2 C0.34 1.67 -0.32 1.34 -1 1 C-0.67 0.67 -0.34 0.34 0 0 Z " fill="#000000" transform="translate(200,90)"/>
<path d="" fill="#FDC000" transform="translate(0,0)"/>
<path d="M0 0 C3 1 3 1 3 1 Z " fill="#FEC000" transform="translate(77,82)"/>
<path d="M0 0 C0.99 0.495 0.99 0.495 2 1 C1.01 1.495 1.01 1.495 0 2 C0 1.34 0 0.68 0 0 Z " fill="#000000" transform="translate(332,81)"/>
<path d="M0 0 C0.99 0.495 0.99 0.495 2 1 C1.01 1.495 1.01 1.495 0 2 C0 1.34 0 0.68 0 0 Z " fill="#000000" transform="translate(334,79)"/>
<path d="M0 0 C3 1 3 1 3 1 Z " fill="#000000" transform="translate(338,77)"/>
<path d="" fill="#000000" transform="translate(0,0)"/>
<path d="" fill="#000000" transform="translate(0,0)"/>
<path d="" fill="#000000" transform="translate(0,0)"/>
<path d="" fill="#000000" transform="translate(0,0)"/>
<path d="" fill="#FEC000" transform="translate(0,0)"/>
<path d="" fill="#000000" transform="translate(0,0)"/>
<path d="M0 0 C0.99 0.495 0.99 0.495 2 1 C1.01 1.495 1.01 1.495 0 2 C0 1.34 0 0.68 0 0 Z " fill="#FEBF00" transform="translate(132,74)"/>
<path d="M0 0 C0.66 0 1.32 0 2 0 C1.67 0.66 1.34 1.32 1 2 C0.67 1.34 0.34 0.68 0 0 Z " fill="#000000" transform="translate(244,71)"/>
<path d="M0 0 C3 1 3 1 3 1 Z " fill="#000000" transform="translate(194,71)"/>
<path d="M0 0 C3 1 3 1 3 1 Z " fill="#FFC000" transform="translate(82,71)"/>
<path d="" fill="#FFC000" transform="translate(0,0)"/>
<path d="" fill="#000000" transform="translate(0,0)"/>
<path d="" fill="#FEC000" transform="translate(0,0)"/>
<path d="M0 0 C3 1 3 1 3 1 Z " fill="#000000" transform="translate(261,63)"/>
<path d="M0 0 C3 1 3 1 3 1 Z " fill="#000000" transform="translate(235,63)"/>
<path d="M0 0 C3 1 3 1 3 1 Z " fill="#FEC000" transform="translate(171,62)"/>
<path d="M0 0 C3 1 3 1 3 1 Z " fill="#000000" transform="translate(196,53)"/>
<path d="M0 0 C3 1 3 1 3 1 Z " fill="#FDBF00" transform="translate(73,52)"/>
<path d="M0 0 C2 1 2 1 2 1 Z " fill="#050505" transform="translate(43,135)"/>
<path d="M0 0 C2 1 2 1 2 1 Z " fill="#000000" transform="translate(45,134)"/>
<path d="M0 0 C2 1 2 1 2 1 Z " fill="#0C0C0C" transform="translate(47,133)"/>
<path d="M0 0 C2 1 2 1 2 1 Z " fill="#181818" transform="translate(49,132)"/>
<path d="M0 0 C2 1 2 1 2 1 Z " fill="#080808" transform="translate(52,130)"/>
<path d="M0 0 C2 1 2 1 2 1 Z " fill="#0B0B0B" transform="translate(54,129)"/>
<path d="M0 0 C2 1 2 1 2 1 Z " fill="#101010" transform="translate(56,128)"/>
<path d="M0 0 C2 1 2 1 2 1 Z " fill="#1E1E1E" transform="translate(58,127)"/>
<path d="M0 0 C2 1 2 1 2 1 Z " fill="#000000" transform="translate(77,117)"/>
<path d="M0 0 C2 1 2 1 2 1 Z " fill="#0A0A0A" transform="translate(79,116)"/>
<path d="M0 0 C2 1 2 1 2 1 Z " fill="#0C0C0C" transform="translate(81,115)"/>
<path d="M0 0 C2 1 2 1 2 1 Z " fill="#000000" transform="translate(64,107)"/>
<path d="M0 0 C2 1 2 1 2 1 Z " fill="#000000" transform="translate(324,100)"/>
<path d="M0 0 C2 1 2 1 2 1 Z " fill="#000000" transform="translate(315,100)"/>
<path d="M0 0 C2 1 2 1 2 1 Z " fill="#000000" transform="translate(308,100)"/>
<path d="M0 0 C2 1 2 1 2 1 Z " fill="#FEC208" transform="translate(104,100)"/>
<path d="M0 0 C2 1 2 1 2 1 Z " fill="#000000" transform="translate(248,99)"/>
<path d="M0 0 C2 1 2 1 2 1 Z " fill="#000000" transform="translate(234,99)"/>
<path d="M0 0 C2 1 2 1 2 1 Z " fill="#FEC000" transform="translate(132,99)"/>
<path d="M0 0 C2 1 2 1 2 1 Z " fill="#FFCB12" transform="translate(85,99)"/>
<path d="M0 0 C2 1 2 1 2 1 Z " fill="#000000" transform="translate(232,98)"/>
<path d="M0 0 C2 1 2 1 2 1 Z " fill="#000000" transform="translate(201,98)"/>
<path d="M0 0 C2 1 2 1 2 1 Z " fill="#FEC000" transform="translate(87,98)"/>
<path d="M0 0 C2 1 2 1 2 1 Z " fill="#FFCE20" transform="translate(65,98)"/>
<path d="M0 0 C2 1 2 1 2 1 Z " fill="#000000" transform="translate(204,96)"/>
<path d="M0 0 C2 1 2 1 2 1 Z " fill="#FEC000" transform="translate(90,96)"/>
<path d="" fill="#000000" transform="translate(0,0)"/>
<path d="" fill="#000000" transform="translate(0,0)"/>
<path d="" fill="#000000" transform="translate(0,0)"/>
<path d="" fill="#000000" transform="translate(0,0)"/>
<path d="M0 0 C2 1 2 1 2 1 Z " fill="#FEC000" transform="translate(133,89)"/>
<path d="M0 0 C2 1 2 1 2 1 Z " fill="#FEC000" transform="translate(73,89)"/>
<path d="" fill="#FEC000" transform="translate(0,0)"/>
<path d="" fill="#FEC000" transform="translate(0,0)"/>
<path d="" fill="#FEC000" transform="translate(0,0)"/>
<path d="" fill="#000000" transform="translate(0,0)"/>
<path d="M0 0 C2 1 2 1 2 1 Z " fill="#FEBF00" transform="translate(80,83)"/>
<path d="M0 0 C2 1 2 1 2 1 Z " fill="#FEC000" transform="translate(75,81)"/>
<path d="" fill="#000000" transform="translate(0,0)"/>
<path d="M0 0 C2 1 2 1 2 1 Z " fill="#000000" transform="translate(198,80)"/>
<path d="M0 0 C2 1 2 1 2 1 Z " fill="#FFC000" transform="translate(72,80)"/>
<path d="M0 0 C2 1 2 1 2 1 Z " fill="#FEC000" transform="translate(70,79)"/>
<path d="M0 0 C2 1 2 1 2 1 Z " fill="#000000" transform="translate(342,78)"/>
<path d="M0 0 C2 1 2 1 2 1 Z " fill="#000000" transform="translate(336,78)"/>
<path d="M0 0 C2 1 2 1 2 1 Z " fill="#000000" transform="translate(315,77)"/>
<path d="" fill="#000000" transform="translate(0,0)"/>
<path d="" fill="#000000" transform="translate(0,0)"/>
<path d="" fill="#000000" transform="translate(0,0)"/>
<path d="" fill="#000000" transform="translate(0,0)"/>
<path d="" fill="#000000" transform="translate(0,0)"/>
<path d="M0 0 C2 1 2 1 2 1 Z " fill="#FFC000" transform="translate(99,74)"/>
<path d="" fill="#000000" transform="translate(0,0)"/>
<path d="" fill="#000000" transform="translate(0,0)"/>
<path d="M0 0 C2 1 2 1 2 1 Z " fill="#FEC000" transform="translate(85,72)"/>
<path d="M0 0 C2 1 2 1 2 1 Z " fill="#000000" transform="translate(269,71)"/>
<path d="M0 0 C2 1 2 1 2 1 Z " fill="#000000" transform="translate(236,71)"/>
<path d="" fill="#000000" transform="translate(0,0)"/>
<path d="" fill="#806104" transform="translate(0,0)"/>
<path d="M0 0 C2 1 2 1 2 1 Z " fill="#000000" transform="translate(315,70)"/>
<path d="M0 0 C2 1 2 1 2 1 Z " fill="#000000" transform="translate(308,70)"/>
<path d="" fill="#000000" transform="translate(0,0)"/>
<path d="" fill="#000000" transform="translate(0,0)"/>
<path d="" fill="#000000" transform="translate(0,0)"/>
<path d="M0 0 C2 1 2 1 2 1 Z " fill="#FEC000" transform="translate(77,69)"/>
<path d="M0 0 C2 1 2 1 2 1 Z " fill="#FFC000" transform="translate(126,65)"/>
<path d="M0 0 C2 1 2 1 2 1 Z " fill="#000000" transform="translate(280,64)"/>
<path d="M0 0 C2 1 2 1 2 1 Z " fill="#000000" transform="translate(267,64)"/>
<path d="M0 0 C2 1 2 1 2 1 Z " fill="#000000" transform="translate(278,63)"/>
<path d="M0 0 C2 1 2 1 2 1 Z " fill="#000000" transform="translate(269,63)"/>
<path d="M0 0 C2 1 2 1 2 1 Z " fill="#000000" transform="translate(245,63)"/>
<path d="" fill="#000000" transform="translate(0,0)"/>
<path d="M0 0 C2 1 2 1 2 1 Z " fill="#FEC000" transform="translate(168,63)"/>
<path d="M0 0 C2 1 2 1 2 1 Z " fill="#FEC000" transform="translate(141,63)"/>
<path d="M0 0 C2 1 2 1 2 1 Z " fill="#FEC000" transform="translate(130,63)"/>
<path d="" fill="#000000" transform="translate(0,0)"/>
<path d="M0 0 C2 1 2 1 2 1 Z " fill="#000000" transform="translate(195,60)"/>
<path d="M0 0 C2 1 2 1 2 1 Z " fill="#000000" transform="translate(40,60)"/>
<path d="" fill="#000000" transform="translate(0,0)"/>
<path d="M0 0 C2 1 2 1 2 1 Z " fill="#000000" transform="translate(46,59)"/>
<path d="M0 0 C2 1 2 1 2 1 Z " fill="#000000" transform="translate(53,58)"/>
<path d="M0 0 C2 1 2 1 2 1 Z " fill="#000000" transform="translate(203,57)"/>
<path d="M0 0 C2 1 2 1 2 1 Z " fill="#FDC000" transform="translate(91,55)"/>
<path d="M0 0 C2 1 2 1 2 1 Z " fill="#000000" transform="translate(199,54)"/>
<path d="M0 0 C2 1 2 1 2 1 Z " fill="#FEC000" transform="translate(88,53)"/>
<path d="" fill="#3F3F3F" transform="translate(0,0)"/>
<path d="" fill="#1E1E1C" transform="translate(0,0)"/>
<path d="M0 0 C2 1 2 1 2 1 Z " fill="#000000" transform="translate(12,49)"/>
<path d="" fill="#0A0A0A" transform="translate(0,0)"/>
<path d="" fill="#060606" transform="translate(0,0)"/>
<path d="M0 0 C2 1 2 1 2 1 Z " fill="#000000" transform="translate(32,46)"/>
<path d="" fill="#000000" transform="translate(0,0)"/>
<path d="M0 0 C2 1 2 1 2 1 Z " fill="#080808" transform="translate(53,43)"/>
<path d="" fill="#0A0909" transform="translate(0,0)"/>
<path d="" fill="#000000" transform="translate(0,0)"/>
<path d="" fill="#0F0F0F" transform="translate(0,0)"/>
<path d="" fill="#020202" transform="translate(0,0)"/>
<path d="" fill="#000000" transform="translate(0,0)"/>
<path d="" fill="#000000" transform="translate(0,0)"/>
<path d="" fill="#070707" transform="translate(0,0)"/>
<path d="" fill="#040404" transform="translate(0,0)"/>
<path d="" fill="#121212" transform="translate(0,0)"/>
<path d="" fill="#181818" transform="translate(0,0)"/>
<path d="" fill="#000000" transform="translate(0,0)"/>
<path d="" fill="#0C0C0C" transform="translate(0,0)"/>
<path d="" fill="#000000" transform="translate(0,0)"/>
<path d="" fill="#000000" transform="translate(0,0)"/>
<path d="" fill="#000000" transform="translate(0,0)"/>
<path d="" fill="#000000" transform="translate(0,0)"/>
<path d="" fill="#000000" transform="translate(0,0)"/>
<path d="" fill="#000000" transform="translate(0,0)"/>
<path d="" fill="#000000" transform="translate(0,0)"/>
<path d="" fill="#000000" transform="translate(0,0)"/>
<path d="" fill="#000000" transform="translate(0,0)"/>
<path d="" fill="#000000" transform="translate(0,0)"/>
<path d="" fill="#000000" transform="translate(0,0)"/>
<path d="" fill="#040404" transform="translate(0,0)"/>
<path d="" fill="#000000" transform="translate(0,0)"/>
<path d="" fill="#000000" transform="translate(0,0)"/>
<path d="" fill="#FEC000" transform="translate(0,0)"/>
<path d="" fill="#000000" transform="translate(0,0)"/>
<path d="" fill="#000000" transform="translate(0,0)"/>
<path d="" fill="#000000" transform="translate(0,0)"/>
<path d="" fill="#FEC000" transform="translate(0,0)"/>
<path d="" fill="#FEC000" transform="translate(0,0)"/>
<path d="" fill="#FEC000" transform="translate(0,0)"/>
<path d="" fill="#000000" transform="translate(0,0)"/>
<path d="" fill="#000000" transform="translate(0,0)"/>
<path d="" fill="#000000" transform="translate(0,0)"/>
<path d="" fill="#000000" transform="translate(0,0)"/>
<path d="" fill="#000000" transform="translate(0,0)"/>
<path d="" fill="#FEC000" transform="translate(0,0)"/>
<path d="" fill="#FFBC00" transform="translate(0,0)"/>
<path d="" fill="#FFC000" transform="translate(0,0)"/>
<path d="" fill="#FEC000" transform="translate(0,0)"/>
<path d="" fill="#FEC000" transform="translate(0,0)"/>
<path d="" fill="#000000" transform="translate(0,0)"/>
<path d="" fill="#000000" transform="translate(0,0)"/>
<path d="" fill="#000000" transform="translate(0,0)"/>
<path d="" fill="#000000" transform="translate(0,0)"/>
<path d="" fill="#FFBE00" transform="translate(0,0)"/>
<path d="" fill="#FFC000" transform="translate(0,0)"/>
<path d="" fill="#FFC410" transform="translate(0,0)"/>
<path d="" fill="#000000" transform="translate(0,0)"/>
<path d="" fill="#000000" transform="translate(0,0)"/>
<path d="" fill="#FEC000" transform="translate(0,0)"/>
<path d="" fill="#FEC000" transform="translate(0,0)"/>
<path d="" fill="#000000" transform="translate(0,0)"/>
<path d="" fill="#FEC000" transform="translate(0,0)"/>
<path d="" fill="#FCBE00" transform="translate(0,0)"/>
<path d="" fill="#000000" transform="translate(0,0)"/>
<path d="" fill="#000000" transform="translate(0,0)"/>
<path d="" fill="#000000" transform="translate(0,0)"/>
<path d="" fill="#000000" transform="translate(0,0)"/>
<path d="" fill="#000000" transform="translate(0,0)"/>
<path d="" fill="#FEC000" transform="translate(0,0)"/>
<path d="" fill="#FFC000" transform="translate(0,0)"/>
<path d="" fill="#FEC000" transform="translate(0,0)"/>
<path d="" fill="#FEC000" transform="translate(0,0)"/>
<path d="" fill="#000000" transform="translate(0,0)"/>
<path d="" fill="#000000" transform="translate(0,0)"/>
<path d="" fill="#000000" transform="translate(0,0)"/>
<path d="" fill="#FEC000" transform="translate(0,0)"/>
<path d="" fill="#000000" transform="translate(0,0)"/>
<path d="" fill="#000000" transform="translate(0,0)"/>
<path d="" fill="#000000" transform="translate(0,0)"/>
<path d="" fill="#FEC000" transform="translate(0,0)"/>
<path d="" fill="#000000" transform="translate(0,0)"/>
<path d="" fill="#FEC000" transform="translate(0,0)"/>
<path d="" fill="#000000" transform="translate(0,0)"/>
<path d="" fill="#000000" transform="translate(0,0)"/>
<path d="" fill="#000000" transform="translate(0,0)"/>
<path d="" fill="#FEC000" transform="translate(0,0)"/>
<path d="" fill="#000000" transform="translate(0,0)"/>
<path d="" fill="#000000" transform="translate(0,0)"/>
<path d="" fill="#000000" transform="translate(0,0)"/>
<path d="" fill="#FEC000" transform="translate(0,0)"/>
<path d="" fill="#000000" transform="translate(0,0)"/>
<path d="" fill="#000000" transform="translate(0,0)"/>
<path d="" fill="#FFC000" transform="translate(0,0)"/>
<path d="" fill="#343434" transform="translate(0,0)"/>
<path d="" fill="#000000" transform="translate(0,0)"/>
<path d="" fill="#000000" transform="translate(0,0)"/>
<path d="" fill="#FEC000" transform="translate(0,0)"/>
<path d="" fill="#000000" transform="translate(0,0)"/>
<path d="" fill="#000000" transform="translate(0,0)"/>
<path d="" fill="#000000" transform="translate(0,0)"/>
<path d="" fill="#000000" transform="translate(0,0)"/>
<path d="" fill="#000000" transform="translate(0,0)"/>
<path d="" fill="#000000" transform="translate(0,0)"/>
<path d="" fill="#FEC000" transform="translate(0,0)"/>
<path d="" fill="#FEC000" transform="translate(0,0)"/>
<path d="" fill="#000000" transform="translate(0,0)"/>
<path d="" fill="#000000" transform="translate(0,0)"/>
<path d="" fill="#000000" transform="translate(0,0)"/>
<path d="" fill="#FFC000" transform="translate(0,0)"/>
<path d="" fill="#000000" transform="translate(0,0)"/>
<path d="" fill="#000000" transform="translate(0,0)"/>
<path d="" fill="#000000" transform="translate(0,0)"/>
<path d="" fill="#FEC000" transform="translate(0,0)"/>
<path d="" fill="#FFC000" transform="translate(0,0)"/>
<path d="" fill="#FFC000" transform="translate(0,0)"/>
<path d="" fill="#000000" transform="translate(0,0)"/>
<path d="" fill="#000000" transform="translate(0,0)"/>
<path d="" fill="#000000" transform="translate(0,0)"/>
<path d="" fill="#000000" transform="translate(0,0)"/>
<path d="" fill="#000000" transform="translate(0,0)"/>
<path d="" fill="#FFC410" transform="translate(0,0)"/>
<path d="" fill="#000000" transform="translate(0,0)"/>
<path d="" fill="#000000" transform="translate(0,0)"/>
<path d="" fill="#000000" transform="translate(0,0)"/>
<path d="" fill="#000000" transform="translate(0,0)"/>
<path d="" fill="#000000" transform="translate(0,0)"/>
<path d="" fill="#000000" transform="translate(0,0)"/>
<path d="" fill="#000000" transform="translate(0,0)"/>
<path d="" fill="#000000" transform="translate(0,0)"/>
<path d="" fill="#000000" transform="translate(0,0)"/>
<path d="" fill="#000000" transform="translate(0,0)"/>
<path d="" fill="#000000" transform="translate(0,0)"/>
<path d="" fill="#000000" transform="translate(0,0)"/>
<path d="" fill="#000000" transform="translate(0,0)"/>
<path d="" fill="#000000" transform="translate(0,0)"/>
<path d="" fill="#000000" transform="translate(0,0)"/>
<path d="" fill="#000000" transform="translate(0,0)"/>
<path d="" fill="#000000" transform="translate(0,0)"/>
<path d="" fill="#FFC000" transform="translate(0,0)"/>
<path d="" fill="#000000" transform="translate(0,0)"/>
<path d="" fill="#000000" transform="translate(0,0)"/>
<path d="" fill="#000000" transform="translate(0,0)"/>
<path d="" fill="#000000" transform="translate(0,0)"/>
<path d="" fill="#FFC000" transform="translate(0,0)"/>
<path d="" fill="#FFC000" transform="translate(0,0)"/>
<path d="" fill="#000000" transform="translate(0,0)"/>
<path d="" fill="#000000" transform="translate(0,0)"/>
<path d="" fill="#000000" transform="translate(0,0)"/>
<path d="" fill="#000000" transform="translate(0,0)"/>
<path d="" fill="#FFC000" transform="translate(0,0)"/>
<path d="" fill="#FEC000" transform="translate(0,0)"/>
<path d="" fill="#000000" transform="translate(0,0)"/>
<path d="" fill="#000000" transform="translate(0,0)"/>
<path d="" fill="#000000" transform="translate(0,0)"/>
<path d="" fill="#000000" transform="translate(0,0)"/>
<path d="" fill="#FEC000" transform="translate(0,0)"/>
<path d="" fill="#FFC000" transform="translate(0,0)"/>
<path d="" fill="#000000" transform="translate(0,0)"/>
<path d="" fill="#444444" transform="translate(0,0)"/>
<path d="" fill="#000000" transform="translate(0,0)"/>
<path d="" fill="#000000" transform="translate(0,0)"/>
<path d="" fill="#000000" transform="translate(0,0)"/>
<path d="" fill="#000000" transform="translate(0,0)"/>
<path d="" fill="#FEC000" transform="translate(0,0)"/>
<path d="" fill="#000000" transform="translate(0,0)"/>
<path d="" fill="#1C1C1C" transform="translate(0,0)"/>
<path d="" fill="#000000" transform="translate(0,0)"/>
<path d="" fill="#000000" transform="translate(0,0)"/>
<path d="" fill="#FEBE00" transform="translate(0,0)"/>
<path d="" fill="#FEC000" transform="translate(0,0)"/>
<path d="" fill="#FFC000" transform="translate(0,0)"/>
<path d="" fill="#000000" transform="translate(0,0)"/>
<path d="" fill="#121212" transform="translate(0,0)"/>
<path d="" fill="#FEC000" transform="translate(0,0)"/>
<path d="" fill="#000000" transform="translate(0,0)"/>
<path d="" fill="#1C1C1C" transform="translate(0,0)"/>
<path d="" fill="#000000" transform="translate(0,0)"/>
<path d="" fill="#282828" transform="translate(0,0)"/>
<path d="" fill="#000000" transform="translate(0,0)"/>
<path d="" fill="#FEC000" transform="translate(0,0)"/>
<path d="" fill="#000000" transform="translate(0,0)"/>
<path d="" fill="#1C1C1C" transform="translate(0,0)"/>
<path d="" fill="#181818" transform="translate(0,0)"/>
<path d="" fill="#242424" transform="translate(0,0)"/>
<path d="" fill="#222222" transform="translate(0,0)"/>
<path d="" fill="#FFD830" transform="translate(0,0)"/>
<path d="" fill="#303030" transform="translate(0,0)"/>
<path d="" fill="#000000" transform="translate(0,0)"/>
<path d="" fill="#FFC410" transform="translate(0,0)"/>
<path d="" fill="#926000" transform="translate(0,0)"/>
<path d="" fill="#343434" transform="translate(0,0)"/>
<path d="" fill="#000000" transform="translate(0,0)"/>
<path d="" fill="#343434" transform="translate(0,0)"/>
<path d="" fill="#FEC000" transform="translate(0,0)"/>
<path d="" fill="#383838" transform="translate(0,0)"/>
<path d="" fill="#2A2A2A" transform="translate(0,0)"/>
<path d="" fill="#000000" transform="translate(0,0)"/>
<path d="" fill="#000000" transform="translate(0,0)"/>
<path d="" fill="#000000" transform="translate(0,0)"/>
<path d="" fill="#000000" transform="translate(0,0)"/>
<path d="" fill="#000000" transform="translate(0,0)"/>
<path d="" fill="#000000" transform="translate(0,0)"/>
<path d="" fill="#000000" transform="translate(0,0)"/>
<path d="" fill="#000000" transform="translate(0,0)"/>
<path d="" fill="#000000" transform="translate(0,0)"/>
<path d="" fill="#040404" transform="translate(0,0)"/>
<path d="" fill="#000000" transform="translate(0,0)"/>
<path d="" fill="#000000" transform="translate(0,0)"/>
</svg>
