<?xml version="1.0" encoding="UTF-8"?>
<svg version="1.1" xmlns="http://www.w3.org/2000/svg" width="92" height="34">
<path d="M0 0 C0.66 0.33 1.32 0.66 2 1 C1.69078116 2.45903258 1.37751201 3.91720722 1.0625 5.375 C0.80146484 6.59316406 0.80146484 6.59316406 0.53515625 7.8359375 C0 10 0 10 -1 12 C-0.195625 12.309375 0.60875 12.61875 1.4375 12.9375 C4 14 4 14 5 15 C5.639375 14.814375 6.27875 14.62875 6.9375 14.4375 C7.618125 14.293125 8.29875 14.14875 9 14 C9.66 14.66 10.32 15.32 11 16 C14.12814514 16.24360073 14.12814514 16.24360073 17.625 16.125 C18.81351563 16.10695313 20.00203125 16.08890625 21.2265625 16.0703125 C22.14179687 16.04710938 23.05703125 16.02390625 24 16 C24 15.01 24 14.02 24 13 C26.875 12.875 26.875 12.875 30 13 C32 15 32 15 32 19 C32.495 17.515 32.495 17.515 33 16 C33.66 16 34.32 16 35 16 C35 18.97 35 21.94 35 25 C31.33333333 25 27.66666667 25 24 25 C23.505 22.03 23.505 22.03 23 19 C22.34 19 21.68 19 21 19 C21 20.98 21 22.96 21 25 C15.72 25 10.44 25 5 25 C4.67 22.69 4.34 20.38 4 18 C4 18.33 4 18.66 4 19 C4 20.66666667 4 22.33333333 4 24 C3.34 24.33 2.68 24.66 2 25 C1.88398438 25.62390625 1.76796875 26.2478125 1.6484375 26.890625 C1 29 1 29 -0.9609375 30.484375 C-1.75757812 30.90203125 -2.55421875 31.3196875 -3.375 31.75 C-4.16648437 32.17796875 -4.95796875 32.6059375 -5.7734375 33.046875 C-8 34 -8 34 -11 34 C-10.835 33.154375 -10.67 32.30875 -10.5 31.4375 C-9.34493094 24.60909307 -9.34493094 24.60909307 -11.71484375 18.390625 C-13.72752812 16.45222248 -15.79766041 14.71560809 -18 13 C-18 12.67 -18 12.34 -18 12 C-11.565 11.505 -11.565 11.505 -5 11 C-4.34 9.02 -3.68 7.04 -3 5 C-2.0436126 3.30792999 -1.05589069 1.63183107 0 0 Z M-5 14 C-6.65 14.33 -8.3 14.66 -10 15 C-6.7563651 19.7079978 -6.7563651 19.7079978 -1.6875 21.875 C-0.800625 21.91625 0.08625 21.9575 1 22 C0.195625 21.4225 -0.60875 20.845 -1.4375 20.25 C-3.97866739 18.01873107 -4.65120368 17.25543229 -5 14 Z M26 15 C26 15.99 26 16.98 26 18 C27.32 17.67 28.64 17.34 30 17 C29.67 16.34 29.34 15.68 29 15 C28.01 15 27.02 15 26 15 Z M-1 16 C-0.67 16.66 -0.34 17.32 0 18 C0.66 17.67 1.32 17.34 2 17 C1.01 16.67 0.02 16.34 -1 16 Z M9 18 C8.67 19.65 8.34 21.3 8 23 C8.99 21.68 9.98 20.36 11 19 C10.34 18.67 9.68 18.34 9 18 Z M17 20 C18 24 18 24 18 24 Z M26 20 C26 20.99 26 21.98 26 23 C27.32 22.67 28.64 22.34 30 22 C30 21.34 30 20.68 30 20 C28.68 20 27.36 20 26 20 Z M-5 24 C-5.33 25.32 -5.66 26.64 -6 28 C-4.35 27.34 -2.7 26.68 -1 26 C-2.32 25.34 -3.64 24.68 -5 24 Z " fill="#FEC400" transform="translate(20,0)"/>
<path d="M0 0 C0.66 0.33 1.32 0.66 2 1 C1.10670798 7.11971698 0.15556126 11.07195333 -5 15 C-7.3125 15.8125 -7.3125 15.8125 -9 16 C-8.34 16.515625 -7.68 17.03125 -7 17.5625 C-4.34362457 20.79995755 -4.68657868 22.92552281 -5 27 C-3.02 26.34 -1.04 25.68 1 25 C1 26.32 1 27.64 1 29 C-0.43294498 29.84114171 -1.87154405 30.67265687 -3.3125 31.5 C-4.11300781 31.9640625 -4.91351563 32.428125 -5.73828125 32.90625 C-8 34 -8 34 -11 34 C-10.835 33.154375 -10.67 32.30875 -10.5 31.4375 C-9.34493094 24.60909307 -9.34493094 24.60909307 -11.71484375 18.390625 C-13.72752812 16.45222248 -15.79766041 14.71560809 -18 13 C-18 12.67 -18 12.34 -18 12 C-11.565 11.505 -11.565 11.505 -5 11 C-4.34 9.02 -3.68 7.04 -3 5 C-2.0436126 3.30792999 -1.05589069 1.63183107 0 0 Z " fill="#0B0A09" transform="translate(20,0)"/>
<path d="M0 0 C1.98 0 3.96 0 6 0 C6.33 0.99 6.66 1.98 7 3 C7.33 2.34 7.66 1.68 8 1 C9.32 1 10.64 1 12 1 C11.67 4.3 11.34 7.6 11 11 C10.34 11 9.68 11 9 11 C9 9.02 9 7.04 9 5 C8.01 5 7.02 5 6 5 C6.33 5.33 6.66 5.66 7 6 C7.04063832 7.66617115 7.042721 9.33388095 7 11 C4.29120665 12.35439668 1.99066732 12.06501451 -1 12 C-1.33 10.68 -1.66 9.36 -2 8 C-0.68 8 0.64 8 2 8 C0.68 7.01 -0.64 6.02 -2 5 C-1.34 3.35 -0.68 1.7 0 0 Z M2 3 C2.33 3.66 2.66 4.32 3 5 C3.66 4.67 4.32 4.34 5 4 C4.01 3.67 3.02 3.34 2 3 Z " fill="#FDC600" transform="translate(17,13)"/>
<path d="M0 0 C1.98 0 3.96 0 6 0 C8 2 8 2 8 6 C8.33 5.01 8.66 4.02 9 3 C9.66 3 10.32 3 11 3 C11 5.97 11 8.94 11 12 C7.33333333 12 3.66666667 12 0 12 C0 8.04 0 4.08 0 0 Z M2 2 C2 2.99 2 3.98 2 5 C3.32 4.67 4.64 4.34 6 4 C5.67 3.34 5.34 2.68 5 2 C4.01 2 3.02 2 2 2 Z M2 7 C2 7.99 2 8.98 2 10 C3.32 9.67 4.64 9.34 6 9 C6 8.34 6 7.68 6 7 C4.68 7 3.36 7 2 7 Z " fill="#010100" transform="translate(44,13)"/>
<path d="M0 0 C0.66 0.66 1.32 1.32 2 2 C2.99 2.33 3.98 2.66 5 3 C5 4.65 5 6.3 5 8 C1.37 8 -2.26 8 -6 8 C-6 5.69 -6 3.38 -6 1 C-4 0 -4 0 0 0 Z " fill="#000000" transform="translate(82,17)"/>
<path d="M0 0 C0.78375 0.04125 1.5675 0.0825 2.375 0.125 C2.705 1.775 3.035 3.425 3.375 5.125 C1.725 5.455 0.075 5.785 -1.625 6.125 C0.025 6.125 1.675 6.125 3.375 6.125 C3.045 7.115 2.715 8.105 2.375 9.125 C0 9.25 0 9.25 -2.625 9.125 C-4.625 7.125 -4.625 7.125 -4.875 4.625 C-4.51649553 1.03995533 -3.59522993 0.17120143 0 0 Z " fill="#000000" transform="translate(60.625,15.875)"/>
<path d="M0 0 C2.33294775 -0.04241723 4.66702567 -0.04092937 7 0 C8 1 8 1 8.09765625 2.84765625 C8.04882812 5.92382812 8.04882812 5.92382812 8 9 C7.34 9 6.68 9 6 9 C6 6.69 6 4.38 6 2 C5.01 2 4.02 2 3 2 C3 4.31 3 6.62 3 9 C2.01 8.67 1.02 8.34 0 8 C0 5.36 0 2.72 0 0 Z " fill="#000000" transform="translate(64,16)"/>
<path d="M0 0 C3.35915158 1.43963639 5.71624938 3.12416589 8 6 C7.75 8.25 7.75 8.25 7 10 C6.5875 9.278125 6.175 8.55625 5.75 7.8125 C4.01263197 5.02030138 2.09618143 2.52987415 0 0 Z " fill="#000000" transform="translate(2,15)"/>
<path d="M0 0 C0.99 0.495 0.99 0.495 2 1 C2 2.32 2 3.64 2 5 C1.34 5 0.68 5 0 5 C0 3.35 0 1.7 0 0 Z " fill="#000000" transform="translate(73,17)"/>
<path d="M0 0 C2.31 0 4.62 0 7 0 C7 0.33 7 0.66 7 1 C4.69 1.33 2.38 1.66 0 2 C0 1.34 0 0.68 0 0 Z " fill="#FFBB00" transform="translate(30,14)"/>
<path d="M0 0 C2.31 0 4.62 0 7 0 C7 0.33 7 0.66 7 1 C4.69 1 2.38 1 0 1 C0 0.67 0 0.34 0 0 Z " fill="#000000" transform="translate(44,26)"/>
<path d="M0 0 C2.31 0 4.62 0 7 0 C7 0.33 7 0.66 7 1 C4.69 1 2.38 1 0 1 C0 0.67 0 0.34 0 0 Z " fill="#FFE000" transform="translate(30,26)"/>
<path d="M0 0 C0.33 0 0.66 0 1 0 C1 2.31 1 4.62 1 7 C0.67 7 0.34 7 0 7 C0 4.69 0 2.38 0 0 Z " fill="#000000" transform="translate(22,1)"/>
<path d="M0 0 C0.99 0.33 1.98 0.66 3 1 C2.34 1 1.68 1 1 1 C0.67 1.99 0.34 2.98 0 4 C0 2.68 0 1.36 0 0 Z " fill="#636300" transform="translate(22,25)"/>
<path d="M0 0 C0.33 0 0.66 0 1 0 C1 1.98 1 3.96 1 6 C0.67 6 0.34 6 0 6 C0 4.02 0 2.04 0 0 Z " fill="#000000" transform="translate(8,25)"/>
<path d="M0 0 C0.33 0 0.66 0 1 0 C1 1.98 1 3.96 1 6 C0.67 6 0.34 6 0 6 C0 4.02 0 2.04 0 0 Z " fill="#000000" transform="translate(68,19)"/>
<path d="M0 0 C1.98 0 3.96 0 6 0 C6 0.33 6 0.66 6 1 C4.02 1 2.04 1 0 1 C0 0.67 0 0.34 0 0 Z " fill="#000000" transform="translate(65,14)"/>
<path d="M0 0 C0.66 0 1.32 0 2 0 C2 0.99 2 1.98 2 3 C1.34 3 0.68 3 0 3 C0 2.01 0 1.02 0 0 Z " fill="#000000" transform="translate(53,12)"/>
<path d="M0 0 C1.98 0 3.96 0 6 0 C6 0.33 6 0.66 6 1 C4.02 1 2.04 1 0 1 C0 0.67 0 0.34 0 0 Z " fill="#000000" transform="translate(44,11)"/>
<path d="M0 0 C1.98 0 3.96 0 6 0 C6 0.33 6 0.66 6 1 C4.02 1 2.04 1 0 1 C0 0.67 0 0.34 0 0 Z " fill="#000000" transform="translate(8,9)"/>
<path d="M0 0 C1.65 0 3.3 0 5 0 C5 0.33 5 0.66 5 1 C3.35 1 1.7 1 0 1 C0 0.67 0 0.34 0 0 Z " fill="#000000" transform="translate(58,26)"/>
<path d="M0 0 C0.33 0 0.66 0 1 0 C1 1.65 1 3.3 1 5 C0.67 5 0.34 5 0 5 C0 3.35 0 1.7 0 0 Z " fill="#C18500" transform="translate(42,20)"/>
<path d="M0 0 C0.33 0 0.66 0 1 0 C1 1.65 1 3.3 1 5 C0.67 5 0.34 5 0 5 C0 3.35 0 1.7 0 0 Z " fill="#000000" transform="translate(88,20)"/>
<path d="M0 0 C1.65 0 3.3 0 5 0 C5 0.33 5 0.66 5 1 C3.35 1 1.7 1 0 1 C0 0.67 0 0.34 0 0 Z " fill="#000000" transform="translate(58,14)"/>
<path d="M0 0 C0.33 0.66 0.66 1.32 1 2 C-0.32 1.67 -1.64 1.34 -3 1 C-2.01 0.67 -1.02 0.34 0 0 Z " fill="#B8A500" transform="translate(42,13)"/>
<path d="M0 0 C1.65 0 3.3 0 5 0 C5 0.33 5 0.66 5 1 C3.35 1 1.7 1 0 1 C0 0.67 0 0.34 0 0 Z " fill="#000000" transform="translate(3,10)"/>
<path d="M0 0 C4 1 4 1 4 1 Z " fill="#000000" transform="translate(83,26)"/>
<path d="M0 0 C4 1 4 1 4 1 Z " fill="#000000" transform="translate(76,26)"/>
<path d="M0 0 C4 1 4 1 4 1 Z " fill="#FFB400" transform="translate(25,26)"/>
<path d="M0 0 C0.66 0 1.32 0 2 0 C2 0.66 2 1.32 2 2 C1.34 2 0.68 2 0 2 C0 1.34 0 0.68 0 0 Z " fill="#000000" transform="translate(73,23)"/>
<path d="M0 0 C1.485 0.99 1.485 0.99 3 2 C2.01 2 1.02 2 0 2 C0 1.34 0 0.68 0 0 Z " fill="#BF9500" transform="translate(20,10)"/>
<path d="" fill="#000000" transform="translate(0,0)"/>
<path d="M0 0 C3 1 3 1 3 1 Z " fill="#FFE900" transform="translate(38,26)"/>
<path d="M0 0 C0.66 0 1.32 0 2 0 C1.67 0.66 1.34 1.32 1 2 C0.67 1.34 0.34 0.68 0 0 Z " fill="#6A4700" transform="translate(12,16)"/>
<path d="M0 0 C3 1 3 1 3 1 Z " fill="#FFA300" transform="translate(26,12)"/>
<path d="M0 0 C2 1 2 1 2 1 Z " fill="#000000" transform="translate(14,33)"/>
<path d="M0 0 C2 1 2 1 2 1 Z " fill="#000000" transform="translate(16,32)"/>
<path d="M0 0 C2 1 2 1 2 1 Z " fill="#000000" transform="translate(19,30)"/>
<path d="M0 0 C2 1 2 1 2 1 Z " fill="#000000" transform="translate(73,26)"/>
<path d="M0 0 C2 1 2 1 2 1 Z " fill="#000000" transform="translate(70,26)"/>
<path d="M0 0 C2 1 2 1 2 1 Z " fill="#000000" transform="translate(65,26)"/>
<path d="M0 0 C2 1 2 1 2 1 Z " fill="#000000" transform="translate(53,26)"/>
<path d="M0 0 C2 1 2 1 2 1 Z " fill="#000000" transform="translate(84,17)"/>
<path d="M0 0 C2 1 2 1 2 1 Z " fill="#000000" transform="translate(47,16)"/>
<path d="" fill="#000000" transform="translate(0,0)"/>
<path d="" fill="#000000" transform="translate(0,0)"/>
<path d="" fill="#000000" transform="translate(0,0)"/>
<path d="" fill="#000000" transform="translate(0,0)"/>
<path d="" fill="#000000" transform="translate(0,0)"/>
<path d="" fill="#000000" transform="translate(0,0)"/>
<path d="" fill="#000000" transform="translate(0,0)"/>
<path d="" fill="#000000" transform="translate(0,0)"/>
<path d="" fill="#000000" transform="translate(0,0)"/>
<path d="" fill="#000000" transform="translate(0,0)"/>
<path d="" fill="#000000" transform="translate(0,0)"/>
<path d="" fill="#000000" transform="translate(0,0)"/>
<path d="" fill="#000000" transform="translate(0,0)"/>
<path d="" fill="#000000" transform="translate(0,0)"/>
<path d="" fill="#000000" transform="translate(0,0)"/>
<path d="" fill="#000000" transform="translate(0,0)"/>
<path d="" fill="#000000" transform="translate(0,0)"/>
<path d="" fill="#000000" transform="translate(0,0)"/>
<path d="" fill="#000000" transform="translate(0,0)"/>
<path d="" fill="#FFFF00" transform="translate(0,0)"/>
<path d="" fill="#FF8000" transform="translate(0,0)"/>
<path d="" fill="#BFBF00" transform="translate(0,0)"/>
<path d="" fill="#000000" transform="translate(0,0)"/>
<path d="" fill="#000000" transform="translate(0,0)"/>
<path d="" fill="#FFFF00" transform="translate(0,0)"/>
<path d="" fill="#D58000" transform="translate(0,0)"/>
<path d="" fill="#000000" transform="translate(0,0)"/>
<path d="" fill="#AA8000" transform="translate(0,0)"/>
<path d="" fill="#000000" transform="translate(0,0)"/>
<path d="" fill="#000000" transform="translate(0,0)"/>
<path d="" fill="#000000" transform="translate(0,0)"/>
<path d="" fill="#000000" transform="translate(0,0)"/>
<path d="" fill="#000000" transform="translate(0,0)"/>
<path d="" fill="#000000" transform="translate(0,0)"/>
<path d="" fill="#000000" transform="translate(0,0)"/>
<path d="" fill="#FF8000" transform="translate(0,0)"/>
<path d="" fill="#000000" transform="translate(0,0)"/>
<path d="" fill="#FFFF00" transform="translate(0,0)"/>
<path d="" fill="#FF8000" transform="translate(0,0)"/>
<path d="" fill="#000000" transform="translate(0,0)"/>
<path d="" fill="#000000" transform="translate(0,0)"/>
<path d="" fill="#FFFF00" transform="translate(0,0)"/>
<path d="" fill="#000000" transform="translate(0,0)"/>
<path d="" fill="#000000" transform="translate(0,0)"/>
</svg>
