<?xml version="1.0" standalone="no"?>
<!DOCTYPE svg PUBLIC "-//W3C//DTD SVG 20010904//EN"
 "http://www.w3.org/TR/2001/REC-SVG-20010904/DTD/svg10.dtd">
<svg version="1.0" xmlns="http://www.w3.org/2000/svg"
 width="368.000000pt" height="136.000000pt" viewBox="0 0 368.000000 136.000000"
 preserveAspectRatio="xMidYMid meet">

<g transform="translate(0.000000,136.000000) scale(0.100000,-0.100000)"
fill="#000000" stroke="none">
<path d="M716 1132 l-109 -218 -231 -33 c-127 -18 -238 -35 -246 -38 -10 -3
43 -61 163 -176 l179 -172 -41 -239 c-22 -132 -39 -242 -36 -244 3 -4 179 86
382 195 l53 28 0 58 c0 31 -2 57 -5 57 -3 0 -69 -34 -147 -75 -78 -41 -143
-73 -145 -72 -1 2 10 76 25 165 l29 161 -118 117 c-65 65 -117 119 -115 121 1
1 65 12 142 23 76 11 149 22 162 25 17 4 39 40 97 156 l76 150 -3 115 -3 115
-109 -219z"/>
<path d="M2160 820 c0 -20 5 -30 15 -30 9 0 15 9 15 24 0 13 -7 26 -15 30 -11
4 -15 -2 -15 -24z"/>
<path d="M1780 595 l0 -215 101 0 c120 0 159 14 184 67 28 57 1 131 -56 157
-11 5 -11 7 -1 12 19 9 42 60 42 95 0 22 -10 41 -34 65 l-34 34 -101 0 -101 0
0 -215z m204 164 c20 -16 26 -29 26 -59 0 -58 -33 -80 -121 -80 l-69 0 0 80 0
80 69 0 c54 0 74 -4 95 -21z m1 -183 c51 -22 68 -67 44 -119 -16 -35 -50 -47
-134 -47 l-75 0 0 90 0 90 65 0 c36 0 81 -6 100 -14z"/>
<path d="M2350 692 c-71 -35 -101 -151 -61 -239 22 -47 53 -71 104 -80 39 -6
99 10 117 32 22 26 1 33 -40 13 -75 -37 -146 0 -157 81 l-6 41 112 0 111 0 0
40 c0 56 -24 99 -65 116 -45 18 -73 18 -115 -4z m100 -25 c24 -12 53 -73 43
-89 -2 -5 -45 -8 -95 -8 l-90 0 6 28 c8 34 60 82 89 82 12 0 33 -6 47 -13z"/>
<path d="M2678 686 c-36 -24 -38 -24 -38 -6 0 11 -7 20 -15 20 -13 0 -15 -24
-15 -160 0 -136 2 -160 15 -160 12 0 15 19 15 110 0 125 11 160 59 180 17 7
43 9 61 5 47 -10 60 -51 60 -185 0 -101 2 -111 18 -108 9 2 16 7 15 11 -2 4
-3 63 -3 131 0 116 -2 127 -23 151 -34 40 -100 45 -149 11z"/>
<path d="M2160 540 c0 -136 2 -160 15 -160 13 0 15 24 15 160 0 136 -2 160
-15 160 -13 0 -15 -24 -15 -160z"/>
<path d="M3260 620 c-11 -11 -20 -31 -20 -44 0 -15 -7 -26 -17 -29 -17 -4 -17
-5 0 -6 15 -1 17 -12 17 -81 0 -47 4 -80 10 -80 6 0 10 33 10 79 0 75 1 80 23
84 l22 4 -23 2 c-19 1 -23 6 -20 28 2 16 12 32 25 39 13 6 20 14 16 17 -11 11
-22 8 -43 -13z"/>
<path d="M3080 505 c0 -77 4 -125 10 -125 6 0 10 48 10 125 0 77 -4 125 -10
125 -6 0 -10 -48 -10 -125z"/>
<path d="M3150 621 c0 -6 5 -13 10 -16 6 -3 10 1 10 9 0 9 -4 16 -10 16 -5 0
-10 -4 -10 -9z"/>
<path d="M3349 531 c-48 -48 -34 -128 27 -151 28 -11 74 3 74 22 0 9 -3 9 -12
0 -30 -30 -98 4 -98 48 0 18 7 20 60 20 57 0 60 1 60 25 0 30 -32 65 -61 65
-11 0 -34 -13 -50 -29z m79 -3 c7 -7 12 -20 12 -30 0 -15 -8 -18 -44 -18 -52
0 -61 9 -40 38 17 24 53 29 72 10z"/>
<path d="M3150 465 c0 -50 4 -85 10 -85 6 0 10 35 10 85 0 50 -4 85 -10 85 -6
0 -10 -35 -10 -85z"/>
<path d="M2950 405 c0 -18 5 -25 20 -25 15 0 20 7 20 25 0 18 -5 25 -20 25
-15 0 -20 -7 -20 -25z"/>
</g>
</svg>
