<?xml version="1.0" encoding="UTF-8"?>
<svg id="Capa_2" data-name="Capa 2" xmlns="http://www.w3.org/2000/svg" xmlns:xlink="http://www.w3.org/1999/xlink" viewBox="0 0 1622.4 586.98">
  <defs>
    <style>
      .cls-1 {
        fill: url(#linear-gradient);
      }

      .cls-1, .cls-2 {
        stroke-width: 0px;
      }

      .cls-2 {
        fill: #364958;
      }
    </style>
    <linearGradient id="linear-gradient" x1="430.9" y1="68.27" x2="172.96" y2="384.24" gradientUnits="userSpaceOnUse">
      <stop offset="0" stop-color="#04ded8"/>
      <stop offset=".75" stop-color="#225efa"/>
    </linearGradient>
  </defs>
  <g id="Layer_1" data-name="Layer 1">
    <g>
      <g>
        <path class="cls-2" d="M394.12,441.34c-8.96-2.31-16.1-5.21-21.42-8.71l10.92-23.52c5.04,3.22,11.13,5.85,18.27,7.88,7.14,2.03,14.14,3.04,21,3.04,13.86,0,20.79-3.43,20.79-10.29,0-3.22-1.89-5.53-5.67-6.93-3.78-1.4-9.59-2.59-17.43-3.57-9.24-1.4-16.87-3.01-22.89-4.83-6.02-1.82-11.24-5.04-15.65-9.66s-6.62-11.2-6.62-19.74c0-7.14,2.06-13.47,6.2-19,4.13-5.53,10.15-9.83,18.06-12.92,7.91-3.08,17.25-4.62,28.04-4.62,7.98,0,15.92.88,23.83,2.62,7.91,1.75,14.45,4.17,19.64,7.25l-10.92,23.31c-9.94-5.6-20.79-8.4-32.55-8.4-7,0-12.25.98-15.75,2.94-3.5,1.96-5.25,4.48-5.25,7.56,0,3.5,1.89,5.95,5.67,7.35,3.78,1.4,9.8,2.73,18.06,3.99,9.24,1.54,16.8,3.19,22.68,4.93,5.88,1.75,10.99,4.94,15.33,9.56,4.34,4.62,6.51,11.06,6.51,19.32,0,7-2.1,13.23-6.3,18.69s-10.33,9.7-18.38,12.71c-8.05,3.01-17.61,4.51-28.67,4.51-9.38,0-18.55-1.15-27.51-3.46Z"/>
        <path class="cls-2" d="M563.17,437.67c-3.22,2.38-7.18,4.17-11.87,5.35-4.69,1.19-9.55,1.79-14.59,1.79-13.58,0-24.01-3.43-31.29-10.29-7.28-6.86-10.92-16.94-10.92-30.24v-99.12h32.76v27.51h27.93v25.2h-27.93v45.99c0,4.76,1.19,8.44,3.57,11.02,2.38,2.59,5.81,3.88,10.29,3.88,5.04,0,9.52-1.4,13.44-4.2l8.61,23.1Z"/>
        <path class="cls-2" d="M692.74,330.15v112.98h-31.29v-13.02c-8.12,9.8-19.88,14.7-35.28,14.7-10.64,0-20.26-2.38-28.88-7.14-8.61-4.76-15.37-11.55-20.26-20.37-4.9-8.82-7.35-19.04-7.35-30.66s2.45-21.84,7.35-30.66c4.9-8.82,11.65-15.61,20.26-20.37,8.61-4.76,18.23-7.14,28.88-7.14,14.42,0,25.69,4.55,33.81,13.65v-11.97h32.76ZM652.42,409.42c5.46-5.67,8.19-13.26,8.19-22.79s-2.73-17.12-8.19-22.79-12.32-8.5-20.58-8.5-15.33,2.83-20.79,8.5-8.19,13.27-8.19,22.79,2.73,17.12,8.19,22.79,12.39,8.5,20.79,8.5,15.12-2.83,20.58-8.5Z"/>
        <path class="cls-2" d="M770.12,332.67c6.65-2.8,14.31-4.2,23-4.2v30.24c-3.64-.28-6.09-.42-7.35-.42-9.38,0-16.73,2.62-22.05,7.88-5.32,5.25-7.98,13.12-7.98,23.62v53.34h-32.76v-112.98h31.29v14.91c3.92-5.46,9.2-9.59,15.85-12.39Z"/>
        <path class="cls-2" d="M908.09,335.71c8.61,4.83,15.36,11.62,20.26,20.37,4.9,8.75,7.35,18.94,7.35,30.55s-2.45,21.81-7.35,30.56c-4.9,8.75-11.66,15.54-20.26,20.37-8.61,4.83-18.17,7.25-28.67,7.25-15.54,0-27.37-4.9-35.49-14.7v13.02h-31.29v-155.82h32.76v54.81c8.26-9.1,19.6-13.65,34.02-13.65,10.5,0,20.05,2.42,28.67,7.25ZM894.44,409.42c5.39-5.67,8.08-13.26,8.08-22.79s-2.7-17.12-8.08-22.79c-5.39-5.67-12.29-8.5-20.68-8.5s-15.3,2.83-20.69,8.5c-5.39,5.67-8.08,13.27-8.08,22.79s2.69,17.12,8.08,22.79c5.39,5.67,12.29,8.5,20.69,8.5s15.29-2.83,20.68-8.5Z"/>
        <path class="cls-2" d="M959.23,309.15c-3.78-3.5-5.67-7.84-5.67-13.02s1.89-9.52,5.67-13.02c3.78-3.5,8.68-5.25,14.7-5.25s10.92,1.68,14.7,5.04c3.78,3.36,5.67,7.56,5.67,12.6,0,5.46-1.89,9.97-5.67,13.54s-8.68,5.35-14.7,5.35-10.92-1.75-14.7-5.25ZM957.55,330.15h32.76v112.98h-32.76v-112.98Z"/>
        <path class="cls-2" d="M1093.31,415.93c4.55-1.75,8.78-4.51,12.71-8.29l17.43,18.9c-10.64,12.18-26.18,18.27-46.62,18.27-12.74,0-24.01-2.48-33.81-7.46-9.8-4.97-17.36-11.86-22.68-20.68-5.32-8.82-7.98-18.83-7.98-30.03s2.62-21.03,7.88-29.92c5.25-8.89,12.46-15.82,21.63-20.79,9.17-4.97,19.49-7.46,30.98-7.46,10.78,0,20.58,2.28,29.4,6.83,8.82,4.55,15.86,11.13,21.11,19.74,5.25,8.61,7.88,18.79,7.88,30.55l-83.58,16.17c2.38,5.6,6.12,9.8,11.24,12.6,5.11,2.8,11.37,4.2,18.79,4.2,5.88,0,11.09-.87,15.64-2.62ZM1052.67,361.23c-5.18,5.32-7.91,12.67-8.19,22.05l55.02-10.71c-1.54-5.88-4.69-10.57-9.45-14.07-4.76-3.5-10.5-5.25-17.22-5.25-8.26,0-14.98,2.66-20.16,7.98Z"/>
        <path class="cls-2" d="M1255.85,341.07c8.61,8.4,12.92,20.86,12.92,37.38v64.68h-32.76v-59.64c0-8.96-1.96-15.65-5.88-20.06-3.92-4.41-9.59-6.61-17.01-6.61-8.26,0-14.84,2.56-19.74,7.67-4.9,5.11-7.35,12.7-7.35,22.78v55.86h-32.76v-112.98h31.29v13.23c4.34-4.76,9.73-8.43,16.17-11.03,6.44-2.59,13.51-3.88,21.21-3.88,14,0,25.3,4.2,33.92,12.6Z"/>
        <path class="cls-2" d="M1298.06,441.34c-1.75-1.75-2.62-3.88-2.62-6.41s.87-4.62,2.62-6.3c1.75-1.68,3.81-2.52,6.2-2.52s4.44.84,6.2,2.52c1.75,1.68,2.62,3.78,2.62,6.3s-.88,4.66-2.62,6.41c-1.75,1.75-3.82,2.62-6.2,2.62s-4.45-.87-6.2-2.62Z"/>
        <path class="cls-2" d="M1354.86,436.09c-4.9-5.25-7.35-12.5-7.35-21.73v-127.05h10.5v125.79c0,7.14,1.61,12.57,4.83,16.28,3.22,3.71,8.05,5.56,14.49,5.56,3.64,0,7.14-.7,10.5-2.1l.84,8.82c-3.92,1.54-8.12,2.31-12.6,2.31-9.24,0-16.31-2.62-21.21-7.88Z"/>
        <path class="cls-2" d="M1409.25,304.42c-1.68-1.61-2.52-3.6-2.52-5.99s.84-4.41,2.52-6.09c1.68-1.68,3.71-2.52,6.09-2.52s4.41.81,6.09,2.42c1.68,1.61,2.52,3.61,2.52,5.98s-.84,4.41-2.52,6.09-3.71,2.52-6.09,2.52-4.41-.8-6.09-2.42ZM1410.09,333.51h10.5v109.62h-10.5v-109.62Z"/>
        <path class="cls-2" d="M1475.19,317.55v15.96h35.07v9.03h-34.86v100.59h-10.5v-126.42c0-9.24,2.62-16.59,7.88-22.05s12.71-8.19,22.37-8.19c4.2,0,8.26.6,12.18,1.79,3.92,1.19,7.14,2.98,9.66,5.36l-4.2,7.98c-4.48-4.06-10.15-6.09-17.01-6.09-13.72,0-20.58,7.35-20.58,22.05Z"/>
        <path class="cls-2" d="M1594.36,430.63c6.09-2.59,11.16-6.41,15.22-11.45l6.09,6.93c-4.76,5.88-10.71,10.33-17.85,13.33-7.14,3.01-14.98,4.51-23.52,4.51-10.92,0-20.69-2.38-29.29-7.14-8.61-4.76-15.33-11.34-20.16-19.74s-7.25-17.99-7.25-28.77,2.27-20.37,6.83-28.77c4.55-8.4,10.88-14.98,19-19.74,8.12-4.76,17.29-7.14,27.51-7.14,9.52,0,18.09,2.21,25.73,6.62,7.63,4.41,13.72,10.5,18.27,18.27,4.55,7.77,7.04,16.49,7.46,26.15l-92.61,18.06c2.66,10.08,7.98,18.06,15.96,23.94,7.98,5.88,17.57,8.82,28.77,8.82,7.14,0,13.75-1.29,19.84-3.88ZM1548.69,347.68c-6.58,3.85-11.69,9.24-15.33,16.17-3.64,6.93-5.46,14.81-5.46,23.62,0,1.54.14,3.71.42,6.51l83.58-16.38c-.98-6.58-3.29-12.6-6.93-18.06-3.64-5.46-8.4-9.76-14.28-12.92-5.88-3.15-12.46-4.72-19.74-4.72-8.26,0-15.68,1.93-22.26,5.77Z"/>
      </g>
      <polygon class="cls-1" points="559.45 267.43 384.2 283.12 341.08 173.9 303.71 291.75 186.38 298.93 274.97 366.48 224.68 501.05 339.13 446.31 159.93 586.98 213.5 385.88 0 239.48 259.16 235.7 342.52 0 408.63 250.07 559.45 267.43"/>
    </g>
  </g>
</svg>